<?xml version="1.0" standalone="no"?>
<!DOCTYPE svg PUBLIC "-//W3C//DTD SVG 20010904//EN"
 "http://www.w3.org/TR/2001/REC-SVG-20010904/DTD/svg10.dtd">
<svg version="1.0" xmlns="http://www.w3.org/2000/svg"
 width="1600.000000pt" height="1600.000000pt" viewBox="0 0 1600.000000 1600.000000"
 preserveAspectRatio="xMidYMid meet">

<g transform="translate(0.000000,1600.000000) scale(0.100000,-0.100000)"
fill="#000000" stroke="none">
<path d="M7321 15711 c-6 -9 -9 -10 -6 -3 3 6 1 12 -4 12 -6 0 -11 -7 -11 -16
0 -8 -5 -12 -10 -9 -6 3 -14 -5 -20 -20 -5 -14 -16 -28 -24 -31 -8 -3 -16 -15
-19 -26 -4 -14 -11 -19 -23 -14 -11 4 -15 2 -11 -8 4 -10 1 -13 -9 -9 -9 3
-14 -2 -14 -16 0 -15 -4 -19 -17 -14 -15 6 -16 4 -6 -9 15 -18 7 -29 -14 -21
-13 5 -13 3 -4 -15 9 -17 9 -22 -1 -22 -8 0 -19 -13 -25 -30 -6 -16 -9 -30 -7
-30 3 0 22 17 43 38 21 20 48 45 60 55 12 10 19 22 16 27 -3 6 -1 10 4 10 6 0
11 -4 11 -8 0 -5 13 -7 30 -4 24 3 32 0 41 -22 7 -14 16 -23 21 -20 4 3 1 12
-7 21 -13 13 -14 17 -2 27 17 14 39 66 28 66 -14 0 -9 34 10 62 23 32 23 35 1
40 -11 3 -24 -2 -31 -11z"/>
<path d="M4764 15548 c-4 -13 -5 -61 -3 -108 5 -104 -1 -556 -8 -625 -10 -89
-10 -599 -1 -617 5 -10 5 -18 0 -18 -9 0 -6 -98 4 -162 3 -21 10 -35 15 -32 5
3 9 -2 9 -10 0 -9 4 -16 9 -16 6 0 6 -12 2 -27 -8 -30 -4 -54 12 -64 5 -4 10
-22 10 -40 1 -19 7 -40 14 -47 7 -7 13 -23 13 -34 0 -12 3 -18 7 -15 6 7 15
-6 48 -70 10 -18 24 -33 32 -33 8 0 11 -5 7 -12 -5 -8 -2 -9 10 -5 9 4 15 3
12 -2 -6 -9 57 -81 72 -81 5 0 13 -7 16 -16 4 -10 14 -14 26 -11 11 3 23 -1
28 -8 4 -7 14 -15 22 -17 8 -2 19 -8 25 -14 5 -7 21 -14 35 -16 47 -9 55 -13
68 -31 7 -9 18 -14 24 -11 6 4 8 3 5 -3 -3 -5 1 -23 10 -39 13 -26 19 -68 22
-157 1 -16 4 -26 9 -24 4 3 13 -1 19 -8 10 -11 9 -15 -7 -20 -16 -5 -18 -12
-12 -38 4 -18 7 -60 6 -94 0 -34 3 -60 7 -58 3 3 7 -16 7 -40 1 -25 -3 -45 -7
-45 -5 0 -4 -11 2 -24 7 -14 14 -23 16 -20 4 4 9 62 10 129 1 41 57 101 89 97
19 -3 22 1 20 25 -2 33 9 56 24 47 6 -4 6 1 -1 14 -9 17 -8 23 5 30 10 6 13
12 6 16 -6 3 -9 25 -7 49 2 23 1 34 -2 25 -2 -10 -9 -18 -14 -18 -5 0 -9 -9
-9 -20 0 -11 -7 -20 -15 -20 -8 0 -15 -5 -15 -11 0 -7 -8 -9 -22 -4 -13 3 -28
7 -35 7 -16 2 -27 45 -24 98 1 25 -3 59 -10 75 -6 17 -11 49 -10 72 2 26 -4
48 -14 61 -12 14 -18 42 -20 98 -3 103 -3 104 -17 99 -10 -4 -12 8 -9 46 2 36
0 49 -8 45 -6 -4 -11 -2 -11 3 0 6 5 11 10 11 6 0 10 11 10 24 0 14 -4 28 -10
31 -5 3 -10 19 -10 36 0 19 -5 29 -15 29 -8 0 -14 3 -14 8 4 24 -2 52 -11 47
-5 -3 -10 1 -10 10 0 10 5 14 13 9 10 -6 10 -4 0 7 -7 7 -13 23 -13 35 0 26
-11 36 -27 26 -8 -5 -9 -19 -3 -47 5 -21 7 -43 4 -47 -3 -4 -1 -8 3 -8 5 0 10
-17 11 -37 2 -20 8 -44 15 -52 7 -8 14 -39 17 -70 3 -31 10 -55 15 -54 7 1 10
-36 9 -101 -1 -111 -15 -146 -61 -146 -26 0 -93 32 -140 67 -17 12 -37 23 -43
23 -6 0 -8 5 -5 10 6 9 -7 14 -27 11 -4 0 -5 6 -1 14 3 9 -5 25 -18 39 -41 39
-59 66 -59 86 0 12 -7 23 -15 26 -10 4 -15 20 -15 44 0 34 -12 54 -32 55 -14
0 -21 15 -7 15 11 0 14 10 11 40 -2 22 -8 37 -13 34 -8 -5 -10 15 -13 129 0
20 -5 37 -9 37 -5 0 -7 40 -5 89 2 49 6 87 10 85 4 -3 7 48 8 113 0 65 5 181
11 258 6 77 13 237 16 355 5 243 12 270 64 270 17 0 45 -10 62 -22 35 -25 247
-237 247 -247 0 -3 18 -24 40 -46 21 -22 39 -43 40 -48 0 -4 22 -28 48 -55 26
-26 59 -63 72 -82 13 -19 32 -42 42 -51 10 -9 18 -20 18 -24 0 -4 14 -28 31
-53 17 -25 31 -53 32 -64 1 -10 5 -18 9 -18 4 0 8 -7 8 -15 0 -8 8 -23 18 -33
10 -10 16 -24 14 -30 -2 -7 4 -12 13 -12 12 0 16 -6 12 -20 -3 -11 1 -23 8
-28 8 -4 13 -14 13 -22 -2 -34 3 -50 15 -50 10 0 14 16 14 53 0 28 -2 44 -4
35 -3 -10 -8 -18 -13 -18 -11 0 -21 30 -14 41 3 5 1 9 -4 9 -6 0 -13 8 -17 18
-5 14 -4 15 6 5 17 -17 29 -16 29 2 0 7 -8 18 -17 24 -10 5 -17 13 -15 18 2 4
-1 9 -7 11 -6 2 -8 -3 -5 -12 3 -9 1 -16 -5 -16 -7 0 -9 13 -5 38 4 29 2 43
-11 55 -9 9 -14 17 -10 17 8 0 -24 58 -52 93 -13 16 -23 35 -23 42 0 8 -6 18
-13 22 -7 4 -41 44 -76 88 -35 44 -95 114 -135 155 -39 41 -80 89 -91 105 -12
17 -41 51 -66 76 -24 25 -69 74 -99 109 -122 141 -196 210 -223 210 -18 0 -28
-7 -33 -22z m116 -1784 c0 -8 -5 -12 -10 -9 -6 4 -8 11 -5 16 9 14 15 11 15
-7z m15 -54 c3 -5 1 -10 -4 -10 -6 0 -11 5 -11 10 0 6 2 10 4 10 3 0 8 -4 11
-10z"/>
<path d="M7015 15360 c-3 -5 -1 -10 4 -10 6 0 11 5 11 10 0 6 -2 10 -4 10 -3
0 -8 -4 -11 -10z"/>
<path d="M6930 15260 c0 -6 -12 -22 -27 -35 -16 -13 -24 -27 -19 -32 5 -4 11
-2 13 5 3 6 10 12 17 12 7 0 18 11 24 25 15 32 15 35 2 35 -5 0 -10 -5 -10
-10z"/>
<path d="M6836 15127 c3 -10 9 -15 12 -12 3 3 0 11 -7 18 -10 9 -11 8 -5 -6z"/>
<path d="M10025 15018 c-11 -7 -42 -13 -70 -14 -27 -1 -58 -3 -67 -3 -28 -1
-21 -21 12 -32 27 -10 35 -20 31 -41 0 -4 15 -15 35 -23 32 -13 34 -16 21 -30
-9 -8 -22 -15 -29 -15 -8 1 -7 5 5 14 14 11 15 16 6 22 -7 4 -15 2 -17 -4 -2
-7 -13 -12 -24 -12 -16 0 -19 -5 -14 -24 4 -15 0 -28 -9 -36 -8 -7 -15 -18
-15 -24 0 -6 -11 -23 -24 -38 -14 -14 -22 -29 -19 -32 4 -3 1 -6 -5 -6 -7 0
-12 -7 -12 -15 0 -8 -4 -15 -10 -15 -5 0 -10 -6 -10 -14 0 -8 -6 -17 -12 -19
-10 -4 -10 -6 0 -6 25 -2 1 -21 -26 -21 -20 0 -23 -3 -14 -12 19 -19 14 -30
-10 -23 -16 4 -19 4 -9 -3 7 -5 10 -15 7 -21 -4 -6 -2 -11 3 -11 6 0 14 0 19
0 4 0 7 4 7 10 0 5 6 15 13 22 6 6 12 18 12 25 0 7 7 13 16 13 8 0 13 4 9 9
-3 5 4 16 15 24 11 7 17 17 13 20 -3 4 1 7 10 7 8 0 18 9 22 19 3 11 28 41 55
67 27 26 48 50 45 52 -2 2 14 20 35 40 22 19 40 39 40 43 0 12 48 58 54 51 3
-3 6 6 6 19 0 14 -5 30 -12 37 -15 15 -57 15 -83 0z m32 -54 c-3 -3 -12 -4
-19 -1 -8 3 -5 6 6 6 11 1 17 -2 13 -5z m-77 -28 c0 -11 -19 -15 -25 -6 -3 5
1 10 9 10 9 0 16 -2 16 -4z"/>
<path d="M9820 14991 c0 -10 30 -24 37 -17 3 3 2 9 -2 15 -8 13 -35 15 -35 2z"/>
<path d="M8450 14906 c0 -2 9 -6 20 -9 11 -3 18 -1 14 4 -5 9 -34 13 -34 5z"/>
<path d="M11415 14900 c3 -5 8 -10 11 -10 2 0 4 5 4 10 0 6 -5 10 -11 10 -5 0
-7 -4 -4 -10z"/>
<path d="M11320 14889 c-8 -4 -30 -14 -47 -21 -18 -7 -33 -16 -33 -20 0 -5 -8
-8 -19 -8 -10 0 -24 -7 -31 -15 -7 -8 -15 -13 -19 -11 -12 7 -64 -30 -67 -47
-3 -24 27 -21 33 4 3 11 11 18 19 15 7 -3 18 1 24 9 6 7 21 11 33 8 22 -4 22
-4 2 13 -20 16 -20 16 3 11 12 -3 22 -1 22 3 0 4 14 13 30 19 18 6 28 6 25 1
-4 -6 -2 -10 3 -10 5 0 12 9 15 21 3 12 10 18 16 15 5 -4 12 -2 15 3 9 14 -6
20 -24 10z"/>
<path d="M11370 14890 c0 -5 5 -10 11 -10 5 0 7 5 4 10 -3 6 -8 10 -11 10 -2
0 -4 -4 -4 -10z"/>
<path d="M8434 14875 c8 -8 17 -15 20 -15 3 0 3 7 0 15 -4 8 -13 15 -21 15
-12 0 -12 -2 1 -15z"/>
<path d="M11049 14750 l-24 -20 33 16 c32 15 40 24 23 24 -5 0 -19 -9 -32 -20z"/>
<path d="M10975 14710 c3 -5 8 -10 11 -10 2 0 4 5 4 10 0 6 -5 10 -11 10 -5 0
-7 -4 -4 -10z"/>
<path d="M10889 14691 c-51 -20 -107 -50 -127 -69 -8 -7 -27 -19 -43 -27 -38
-20 -37 -26 4 -21 39 4 67 15 67 26 0 4 33 24 74 44 41 20 77 40 81 45 11 18
-10 19 -56 2z"/>
<path d="M9720 14551 c0 -10 22 -31 32 -31 17 0 7 28 -12 33 -11 3 -20 2 -20
-2z"/>
<path d="M10650 14550 c0 -6 -11 -16 -25 -22 -25 -11 -35 -48 -13 -48 6 0 8 3
5 7 -10 9 43 34 57 26 6 -3 8 -2 3 2 -4 5 0 17 10 27 15 17 15 18 -10 18 -15
0 -27 -5 -27 -10z"/>
<path d="M9685 14489 c-4 -6 -4 -13 -1 -16 3 -4 6 -1 6 5 0 6 8 13 18 15 15 4
15 5 0 6 -9 0 -20 -4 -23 -10z"/>
<path d="M10553 14476 c-4 -7 -15 -16 -23 -19 -8 -3 -3 -5 13 -4 15 1 27 5 27
9 0 4 8 4 18 1 16 -6 16 -6 0 10 -20 21 -25 21 -35 3z"/>
<path d="M9649 14458 c-7 -24 -5 -38 6 -38 8 0 17 5 20 10 3 6 -1 10 -10 10
-9 0 -13 5 -10 10 3 6 4 10 1 10 -3 0 -6 -1 -7 -2z"/>
<path d="M9622 14416 c4 -5 -2 -18 -14 -28 -18 -15 -20 -21 -9 -27 8 -5 10
-14 6 -21 -5 -9 -4 -11 4 -6 6 4 11 13 10 19 -3 27 2 36 16 31 21 -8 19 11 -2
27 -10 7 -15 9 -11 5z"/>
<path d="M5080 14307 c0 -2 7 -18 16 -35 16 -34 34 -50 34 -32 0 18 -30 70
-40 70 -6 0 -10 -2 -10 -3z"/>
<path d="M10906 14235 c-3 -8 -1 -15 5 -15 6 0 7 -5 3 -12 -4 -7 -3 -8 4 -4
14 8 16 46 3 46 -5 0 -11 -7 -15 -15z"/>
<path d="M10230 14185 c-20 -21 -21 -25 -6 -25 24 0 51 29 39 41 -6 6 -18 0
-33 -16z"/>
<path d="M10860 14189 c0 -5 5 -7 10 -4 6 3 10 8 10 11 0 2 -4 4 -10 4 -5 0
-10 -5 -10 -11z"/>
<path d="M10780 14153 c0 -25 15 -38 25 -22 4 6 0 18 -9 27 -15 15 -16 15 -16
-5z"/>
<path d="M5130 14150 c0 -5 5 -10 11 -10 5 0 7 5 4 10 -3 6 -8 10 -11 10 -2 0
-4 -4 -4 -10z"/>
<path d="M10196 14134 c-9 -8 -14 -19 -11 -24 3 -5 -4 -12 -16 -15 -11 -4 -18
-9 -16 -12 3 -2 1 -18 -5 -34 -7 -20 -17 -29 -31 -29 -18 0 -19 -2 -7 -10 13
-8 12 -10 -4 -10 -13 0 -17 -5 -13 -20 3 -12 0 -20 -8 -20 -7 0 -15 -7 -19
-15 -3 -8 -1 -15 5 -15 11 0 5 -39 -10 -69 -6 -11 -10 -24 -9 -28 1 -4 -2 -25
-6 -45 -5 -20 -4 -49 1 -64 7 -22 5 -32 -9 -46 -18 -18 -26 -54 -10 -44 5 3 9
-11 10 -30 2 -44 11 -61 23 -43 8 12 11 11 19 -1 6 -10 6 -16 -1 -19 -7 -2 -7
-6 2 -12 7 -4 22 -3 32 3 14 7 18 7 12 -2 -4 -6 -8 -22 -10 -36 -2 -19 0 -22
11 -13 8 6 14 8 14 3 0 -5 7 2 16 15 14 19 14 25 3 33 -10 7 -6 8 14 3 23 -5
27 -3 25 12 -2 10 2 17 8 16 6 -1 24 14 40 34 16 19 58 66 94 104 106 110 147
158 142 164 -3 3 0 5 6 5 19 0 70 53 65 68 -3 6 1 12 9 13 48 3 82 24 74 46
-3 7 -1 13 4 13 6 0 24 13 40 29 25 24 28 30 15 35 -19 7 -45 -16 -45 -40 0
-13 -3 -14 -15 -4 -11 9 -19 8 -37 -4 -12 -9 -20 -16 -16 -16 10 0 -55 -62
-66 -64 -35 -5 -47 -32 -18 -39 11 -3 7 -5 -10 -6 -17 -1 -29 -8 -33 -21 -4
-11 -12 -20 -18 -19 -27 3 -36 -3 -56 -36 -11 -19 -24 -34 -28 -33 -4 2 -27
-15 -50 -37 -33 -31 -40 -42 -31 -53 10 -11 8 -13 -8 -10 -11 2 -18 -2 -16 -9
1 -7 -5 -13 -13 -13 -8 0 -15 -4 -15 -8 0 -11 -45 -32 -66 -32 -9 0 -29 14
-46 30 -24 25 -29 36 -23 58 3 15 8 49 11 77 2 27 8 52 13 55 5 3 8 26 6 53
-2 26 0 47 5 47 4 0 20 26 35 58 15 31 38 71 51 89 35 47 27 75 -10 37z m424
-119 c-7 -9 -15 -13 -19 -10 -3 3 1 10 9 15 21 14 24 12 10 -5z"/>
<path d="M10750 14120 c-8 -11 -25 -20 -37 -20 -31 0 -29 -15 2 -18 14 -1 25
3 25 8 0 6 6 10 14 10 19 0 27 13 17 28 -5 8 -11 6 -21 -8z"/>
<path d="M5152 14113 c2 -9 8 -18 15 -20 7 -3 9 3 6 16 -6 25 -26 28 -21 4z"/>
<path d="M6685 14100 c-3 -5 -2 -10 4 -10 5 0 13 5 16 10 3 6 2 10 -4 10 -5 0
-13 -4 -16 -10z"/>
<path d="M6650 14064 c0 -8 -4 -12 -10 -9 -5 3 -10 2 -10 -4 0 -5 -2 -16 -5
-23 -3 -8 1 -14 12 -14 13 0 18 9 20 33 1 18 0 33 -3 33 -2 0 -4 -7 -4 -16z"/>
<path d="M6670 14064 c0 -8 5 -12 10 -9 6 3 10 10 10 16 0 5 -4 9 -10 9 -5 0
-10 -7 -10 -16z"/>
<path d="M10125 14050 c-3 -5 -1 -10 4 -10 6 0 11 5 11 10 0 6 -2 10 -4 10 -3
0 -8 -4 -11 -10z"/>
<path d="M6330 13984 c0 -8 -4 -12 -10 -9 -6 3 -7 -1 -4 -9 4 -11 0 -16 -10
-16 -9 0 -15 -3 -13 -7 1 -5 -1 -9 -5 -11 -17 -6 -58 -54 -58 -68 0 -8 -4 -12
-10 -9 -5 3 -28 -3 -51 -14 -23 -11 -46 -18 -51 -15 -5 3 -19 -3 -31 -13 -12
-11 -42 -29 -67 -41 -40 -20 -42 -22 -17 -22 15 0 27 5 27 11 0 8 4 8 14 0 12
-10 17 -8 26 9 6 11 15 18 21 15 5 -4 12 1 15 10 5 11 10 13 19 5 9 -7 16 -6
24 4 10 12 18 13 36 4 14 -6 22 -15 19 -19 -3 -5 1 -19 7 -31 7 -13 11 -41 10
-64 -3 -57 -5 -66 -19 -91 -8 -15 -9 -23 -2 -23 6 0 4 -12 -5 -30 -9 -17 -13
-40 -10 -51 4 -13 2 -19 -6 -17 -9 2 -14 -17 -16 -66 -2 -38 -8 -75 -13 -81
-6 -7 -13 -36 -16 -64 -3 -29 -14 -73 -25 -98 -10 -24 -19 -55 -19 -68 0 -12
-7 -28 -15 -35 -8 -6 -14 -15 -13 -18 4 -14 -14 -52 -23 -52 -6 0 -15 -13 -20
-30 -6 -16 -15 -30 -20 -30 -5 0 -9 -6 -9 -14 0 -8 -7 -17 -16 -20 -8 -3 -12
-10 -9 -16 3 -5 -1 -10 -9 -10 -9 0 -16 5 -16 11 0 5 -5 7 -10 4 -6 -4 -8 -10
-5 -15 3 -5 -9 -11 -26 -15 -17 -4 -33 -13 -36 -21 -3 -8 -9 -11 -14 -8 -6 3
-21 -1 -34 -10 -13 -9 -33 -16 -43 -16 -10 0 -27 -7 -38 -15 -26 -20 -34 -19
-34 5 0 12 -7 32 -16 45 -18 27 -16 83 3 103 7 8 11 18 8 23 -4 5 0 9 8 9 7 0
14 6 14 13 0 6 4 21 9 32 4 11 -18 -6 -50 -37 -31 -32 -55 -62 -51 -67 3 -5
-3 -16 -12 -23 -20 -15 -41 -53 -45 -83 -2 -11 -6 -22 -10 -25 -4 -3 -9 -16
-11 -27 -4 -31 -48 -85 -64 -79 -7 3 -13 -1 -13 -10 0 -9 -13 -29 -30 -46 -16
-16 -27 -22 -24 -14 4 11 1 16 -11 16 -9 0 -24 7 -33 16 -15 15 -16 15 -23 -2
-4 -11 -8 -26 -8 -34 -1 -12 1 -13 8 -1 5 8 14 10 21 6 10 -6 8 -11 -6 -22
-18 -13 -18 -15 -1 -27 21 -16 22 -36 3 -36 -8 0 -18 -5 -22 -12 -4 -7 -3 -8
4 -4 8 4 12 0 12 -11 0 -15 2 -16 10 -3 5 8 10 10 10 5 0 -6 -9 -18 -20 -28
-23 -20 -27 -39 -5 -31 8 4 15 10 15 15 0 5 7 9 15 9 8 0 15 -4 15 -10 0 -5
-4 -10 -10 -10 -5 0 -10 -11 -10 -25 0 -14 -4 -25 -10 -25 -5 0 -10 -4 -10
-10 0 -6 9 -6 26 0 14 6 30 8 35 4 5 -3 9 4 9 15 0 10 -5 21 -12 23 -7 3 -6
12 6 31 10 14 15 31 11 37 -3 5 5 14 19 20 14 5 26 17 26 25 0 9 7 23 15 31
17 18 20 50 5 59 -14 8 6 35 26 35 7 0 11 6 8 13 -2 7 6 22 18 32 19 16 36 20
98 18 44 -1 85 4 100 11 14 7 31 11 37 9 12 -4 71 31 84 49 3 5 13 6 22 2 17
-6 40 14 115 99 18 20 36 37 41 37 5 0 11 10 15 23 3 12 6 24 7 27 1 3 10 17
21 33 11 15 16 27 13 27 -3 0 3 13 14 29 12 16 21 36 21 45 0 9 5 16 10 16 6
0 10 7 10 15 0 8 6 29 14 47 8 18 17 46 21 61 3 16 17 40 30 53 23 23 25 24
45 7 16 -14 20 -29 20 -73 0 -54 -4 -72 -34 -182 -14 -53 -20 -82 -51 -258 -7
-41 -20 -105 -28 -142 -9 -37 -15 -96 -14 -131 2 -48 -1 -63 -11 -60 -8 4 -10
0 -6 -11 3 -9 1 -16 -6 -16 -6 0 -8 -5 -4 -11 4 -7 7 -26 6 -43 -1 -22 2 -26
8 -16 16 25 12 -11 -4 -39 -8 -14 -12 -31 -9 -38 3 -7 -2 -30 -10 -52 -12 -28
-16 -81 -18 -190 -1 -83 1 -154 4 -157 3 -4 0 -13 -8 -21 -17 -17 -20 -43 -4
-43 6 0 3 -7 -6 -16 -11 -11 -13 -20 -5 -28 5 -7 8 -15 5 -18 -22 -21 4 -675
27 -689 6 -4 5 -8 -3 -11 -10 -3 -11 -11 -2 -34 11 -27 26 -162 25 -209 -2
-49 40 -57 103 -20 22 13 55 32 73 41 17 10 32 21 32 26 0 4 9 8 20 8 11 0 23
7 26 15 4 8 11 15 17 15 6 0 18 6 26 13 9 8 32 20 51 27 19 7 43 22 53 32 19
19 43 25 32 8 -9 -15 11 -12 24 4 6 7 8 21 5 31 -6 15 -4 16 13 6 16 -8 24 -7
33 4 7 8 21 15 31 15 11 0 19 5 19 11 0 6 -6 9 -12 6 -7 -2 -21 0 -32 5 -12 7
-16 7 -12 0 3 -5 -1 -12 -9 -16 -8 -3 -17 -1 -20 4 -10 16 -23 11 -30 -11 -5
-16 -13 -20 -32 -16 -13 2 -30 -1 -36 -7 -13 -14 -14 -14 -57 -22 -16 -4 -35
-13 -41 -20 -6 -8 -22 -14 -35 -14 -12 0 -34 -4 -47 -9 -33 -13 -62 -4 -76 22
-17 35 -20 99 -5 135 8 19 15 51 16 72 2 21 6 36 9 34 7 -4 59 114 59 134 0 6
4 12 9 12 5 0 11 8 15 18 3 9 10 24 15 32 5 8 14 27 21 42 7 15 21 36 31 47
10 10 15 22 12 25 -4 3 -2 6 4 6 12 0 73 84 73 101 0 7 10 23 22 36 19 21 20
26 8 34 -12 9 -10 10 7 6 14 -3 20 -1 17 8 -3 7 3 15 13 19 15 6 15 8 3 16 -8
6 -19 10 -25 10 -5 0 -3 -5 5 -10 13 -9 13 -10 0 -11 -8 -1 -21 -1 -27 0 -7 1
-13 -6 -13 -15 0 -9 -8 -23 -17 -30 -16 -12 -16 -15 -3 -24 12 -8 11 -10 -8
-10 -13 0 -21 -4 -18 -9 3 -5 -2 -15 -11 -22 -12 -10 -14 -10 -9 -1 4 6 5 12
3 12 -7 0 -45 -64 -73 -120 -13 -25 -29 -45 -36 -45 -7 0 -13 -7 -14 -15 -2
-35 -5 -41 -14 -35 -6 3 -10 -4 -11 -17 0 -15 -17 -37 -45 -60 -38 -32 -48
-36 -64 -26 -33 21 -43 50 -56 173 -11 98 -12 119 -13 212 -1 68 -5 82 -19 86
-16 4 -16 5 1 6 10 1 17 9 17 22 0 11 -4 18 -8 15 -4 -2 -14 -1 -21 4 -10 6
-8 9 8 15 22 7 30 35 10 35 -8 0 -8 5 1 15 7 8 10 21 7 30 -4 8 0 21 8 29 19
19 21 136 3 136 -7 1 -3 9 9 19 15 12 20 25 16 40 -3 13 -1 21 6 21 7 0 9 5 4
13 -10 16 -13 38 -4 33 4 -3 8 19 9 49 1 42 10 71 43 132 22 43 51 89 63 103
12 14 30 43 39 64 10 21 45 71 78 111 32 39 59 75 59 79 0 4 6 14 13 21 6 8
17 20 22 27 6 7 22 28 38 46 15 19 25 38 21 43 -3 5 0 9 6 9 16 0 33 20 53 63
11 22 23 35 29 31 7 -4 8 -2 4 4 -4 8 0 12 11 12 29 1 66 37 60 59 -3 12 1 22
10 25 8 3 11 11 7 18 -5 8 -14 4 -28 -13 -12 -13 -27 -24 -33 -25 -28 -2 -33
-4 -33 -15 0 -5 4 -8 9 -4 5 3 13 0 17 -6 4 -7 3 -9 -4 -5 -6 3 -15 -2 -21
-11 -6 -10 -11 -14 -11 -10 0 17 -30 -22 -30 -40 0 -13 -3 -14 -8 -5 -7 10
-15 8 -35 -8 -15 -12 -27 -26 -27 -31 0 -6 -15 -25 -34 -42 -18 -18 -45 -49
-59 -70 -39 -57 -129 -167 -138 -167 -4 0 -17 12 -29 28 -20 24 -21 34 -15
106 4 44 16 113 27 155 11 42 24 96 30 121 5 25 13 54 18 65 16 38 52 150 56
180 5 30 8 37 37 105 8 19 18 55 22 79 4 25 14 51 22 59 8 8 12 23 10 33 -3
10 2 27 10 38 8 12 11 21 7 21 -3 0 -1 7 7 16 10 13 10 17 -2 25 -10 6 -11 11
-2 17 6 4 13 16 15 27 1 10 11 27 20 37 10 10 15 25 12 35 -5 14 -4 15 4 4 15
-21 69 75 55 98 -8 12 -5 18 10 26 25 12 36 38 13 29 -9 -3 -14 -10 -11 -14 3
-5 -5 -10 -17 -12 -27 -4 -37 -28 -11 -28 11 -1 6 -6 -15 -15 -22 -10 -32 -20
-30 -32 2 -12 -2 -17 -12 -15 -8 2 -12 0 -8 -4 4 -4 -2 -25 -14 -46 -20 -35
-26 -39 -50 -34 -16 3 -28 1 -28 -4 0 -6 -4 -10 -10 -10 -5 0 -10 9 -10 20 0
11 -4 20 -9 20 -4 0 -12 15 -17 33 -5 18 -19 36 -32 42 -24 10 -29 44 -11 62
13 13 5 43 -11 43 -5 0 -10 -7 -10 -16z m-50 -124 c0 -11 -4 -20 -9 -20 -5 0
-7 9 -4 20 3 11 7 20 9 20 2 0 4 -9 4 -20z m-30 -47 c0 -14 -2 -15 -9 -4 -5 7
-14 10 -20 7 -6 -4 -11 -2 -11 3 0 6 9 11 20 11 12 0 20 -7 20 -17z m215 -73
c-3 -5 -12 -10 -18 -10 -7 0 -6 4 3 10 19 12 23 12 15 0z m-105 -152 c28 -30
26 -77 -5 -111 -30 -31 -42 -33 -67 -10 -21 19 -25 92 -6 123 17 26 52 25 78
-2z m-940 -1092 c0 -3 -4 -8 -10 -11 -5 -3 -10 -1 -10 4 0 6 5 11 10 11 6 0
10 -2 10 -4z m780 -1636 c0 -11 -4 -20 -10 -20 -5 0 -10 9 -10 20 0 11 5 20
10 20 6 0 10 -9 10 -20z"/>
<path d="M6350 13930 c0 -5 5 -10 11 -10 5 0 7 5 4 10 -3 6 -8 10 -11 10 -2 0
-4 -4 -4 -10z"/>
<path d="M6060 13809 c0 -5 5 -7 10 -4 6 3 10 8 10 11 0 2 -4 4 -10 4 -5 0
-10 -5 -10 -11z"/>
<path d="M5747 13593 c-4 -3 -7 -11 -7 -17 0 -6 5 -5 12 2 6 6 9 14 7 17 -3 3
-9 2 -12 -2z"/>
<path d="M4282 13558 c-7 -7 -12 -15 -12 -19 0 -4 -5 -20 -12 -36 -30 -73 -68
-269 -68 -358 0 -39 -4 -85 -10 -104 -17 -61 -23 -222 -10 -291 7 -36 16 -96
20 -135 4 -38 17 -106 28 -150 21 -78 29 -185 15 -199 -12 -12 -13 -79 -2 -93
8 -8 8 -13 1 -13 -5 0 -8 -9 -5 -19 3 -11 -2 -29 -10 -41 -17 -24 -11 -66 10
-75 9 -3 16 -4 17 -3 23 59 44 83 74 86 22 2 32 -1 32 -11 0 -7 11 -20 25 -27
13 -7 26 -20 28 -29 3 -9 5 -6 6 9 l2 25 18 -22 c11 -13 22 -23 25 -23 11 0 6
79 -6 86 -7 5 -8 2 -3 -7 5 -8 4 -11 -1 -6 -5 5 -10 13 -10 18 -1 5 -2 14 -3
19 0 6 -8 10 -16 10 -8 0 -12 6 -9 13 3 8 -2 20 -11 27 -8 7 -15 19 -15 27 0
8 -11 31 -25 51 -14 20 -25 48 -25 62 0 15 -11 48 -23 76 -34 71 -48 133 -59
269 -11 142 -11 147 0 381 10 201 21 243 75 281 l31 22 38 -21 c21 -12 38 -25
38 -29 0 -4 64 -72 143 -151 78 -80 153 -161 167 -181 14 -20 31 -37 38 -37 6
0 11 -3 10 -7 -4 -19 15 -41 30 -36 15 4 15 3 2 -6 -12 -9 -13 -14 -2 -28 7
-10 15 -26 19 -36 3 -11 12 -16 23 -12 10 3 21 1 25 -5 4 -6 1 -9 -7 -8 -17 4
-11 -34 8 -45 8 -4 14 -17 14 -27 0 -11 5 -20 11 -20 5 0 8 -4 4 -9 -7 -12 12
-24 25 -16 13 8 1 35 -16 35 -11 0 -12 5 -6 18 10 18 8 30 -14 80 -9 18 -20
30 -25 26 -6 -3 -9 0 -7 7 3 19 -32 70 -44 63 -5 -3 -8 2 -7 12 4 24 -52 105
-68 99 -6 -2 -11 4 -10 14 1 24 -46 82 -185 225 -132 138 -151 160 -198 236
-45 72 -56 80 -78 58z m625 -784 c1 -18 -2 -23 -9 -16 -6 6 -8 18 -5 26 9 22
12 20 14 -10z"/>
<path d="M5690 13550 c0 -5 5 -10 11 -10 5 0 7 5 4 10 -3 6 -8 10 -11 10 -2 0
-4 -4 -4 -10z"/>
<path d="M10073 13506 c4 -9 -1 -16 -11 -19 -15 -4 -15 -5 1 -12 10 -4 23 -3
28 2 11 11 2 43 -13 43 -6 0 -8 -6 -5 -14z"/>
<path d="M10085 13450 c-3 -5 -1 -10 4 -10 6 0 11 5 11 10 0 6 -2 10 -4 10 -3
0 -8 -4 -11 -10z"/>
<path d="M13046 13441 c-4 -6 -2 -11 3 -11 6 0 11 -6 11 -14 0 -22 17 -28 24
-9 4 10 4 14 0 10 -5 -4 -13 2 -20 14 -7 14 -14 18 -18 10z"/>
<path d="M13000 13415 c-7 -8 -9 -15 -4 -15 5 0 -2 -7 -15 -16 -18 -13 -20
-18 -10 -26 9 -5 5 -6 -13 -2 -19 4 -32 0 -47 -15 -12 -12 -27 -21 -35 -21
-15 0 -30 -27 -27 -49 2 -9 -3 -12 -13 -8 -9 3 -19 0 -23 -7 -5 -8 -19 -16
-33 -18 -15 -2 -25 -9 -25 -20 0 -22 -70 -69 -92 -62 -13 4 -14 3 -5 -3 10 -8
5 -16 -20 -35 -18 -13 -41 -27 -50 -31 -10 -3 -18 -11 -18 -17 0 -5 -7 -10
-15 -10 -18 0 -20 -16 -3 -26 6 -4 8 -3 5 3 -6 9 12 23 33 27 3 1 21 11 41 24
20 12 40 22 45 22 4 0 29 18 55 40 26 22 52 40 57 40 5 0 17 9 27 20 10 11 27
22 39 26 11 4 33 15 49 26 20 14 27 16 27 6 0 -7 8 -20 18 -29 15 -13 16 -26
10 -114 -4 -55 -12 -131 -18 -170 -7 -38 -12 -123 -13 -188 -1 -64 -6 -117
-10 -117 -5 0 -6 -4 -3 -8 15 -24 27 -420 14 -429 -5 -2 -8 -13 -8 -24 0 -11
5 -17 10 -14 6 3 10 2 10 -4 0 -5 8 -12 18 -15 9 -3 5 -4 -10 -2 -22 2 -28 -1
-28 -15 0 -10 5 -21 10 -24 6 -3 10 -11 10 -16 0 -6 -4 -7 -10 -4 -5 3 -10 3
-10 0 0 -8 40 -60 41 -54 3 16 10 57 11 72 1 9 5 17 8 17 3 0 7 14 8 30 2 21
-2 30 -13 30 -8 0 -15 7 -15 16 0 14 3 14 15 4 19 -16 27 -8 32 31 3 26 0 30
-17 24 -26 -8 -26 9 0 35 22 22 27 70 8 70 -10 0 -10 2 -1 8 8 5 12 61 13 192
2 283 1 333 -4 358 -3 12 -1 22 3 22 4 0 7 19 6 42 -1 42 3 72 30 218 26 141
26 140 -6 147 -16 3 -26 9 -23 14 3 5 9 7 14 4 5 -3 4 8 -1 25 -13 35 -13 35
-29 15z m-30 -675 c0 -5 -2 -10 -4 -10 -3 0 -8 5 -11 10 -3 6 -1 10 4 10 6 0
11 -4 11 -10z m5 -500 c3 -6 -1 -7 -9 -4 -18 7 -21 14 -7 14 6 0 13 -4 16 -10z"/>
<path d="M10050 13408 c0 -4 7 -8 15 -8 8 0 15 4 15 8 0 5 -7 9 -15 9 -8 0
-15 -4 -15 -9z"/>
<path d="M12960 13389 c0 -5 5 -7 10 -4 6 3 10 8 10 11 0 2 -4 4 -10 4 -5 0
-10 -5 -10 -11z"/>
<path d="M10028 13373 c-19 -5 -25 -43 -8 -43 6 0 10 4 10 9 0 5 7 17 16 25
16 16 13 17 -18 9z"/>
<path d="M12095 13351 c4 -13 0 -23 -12 -30 -17 -10 -17 -10 0 -11 10 0 20 7
23 15 4 8 10 15 16 15 5 0 6 -4 3 -10 -10 -16 11 -12 25 5 10 12 8 16 -15 25
-38 15 -47 12 -40 -9z"/>
<path d="M9980 13304 c0 -14 3 -14 15 -4 8 7 15 14 15 16 0 2 -7 4 -15 4 -8 0
-15 -7 -15 -16z"/>
<path d="M5510 13289 c0 -5 5 -7 10 -4 6 3 10 8 10 11 0 2 -4 4 -10 4 -5 0
-10 -5 -10 -11z"/>
<path d="M9343 13274 c0 -31 23 -52 40 -35 9 10 8 11 -5 6 -10 -4 -18 -3 -18
3 0 6 5 12 10 14 6 2 2 10 -9 19 -17 16 -18 15 -18 -7z"/>
<path d="M9250 13257 c0 -9 4 -18 9 -21 5 -4 8 1 7 9 -3 21 -16 31 -16 12z"/>
<path d="M9292 13254 c-11 -12 -9 -14 8 -14 11 0 20 4 20 9 0 17 -15 19 -28 5z"/>
<path d="M9200 13256 c0 -2 9 -6 20 -9 11 -3 20 -1 20 4 0 5 -9 9 -20 9 -11 0
-20 -2 -20 -4z"/>
<path d="M11090 13250 c0 -5 9 -10 19 -10 11 0 23 5 26 10 4 6 -5 10 -19 10
-14 0 -26 -4 -26 -10z"/>
<path d="M5861 13226 c-16 -17 -19 -25 -9 -28 7 -3 18 7 26 20 17 34 10 37
-17 8z"/>
<path d="M9421 13241 c-8 -6 -9 -11 -3 -15 6 -3 14 -1 17 5 9 14 2 20 -14 10z"/>
<path d="M10930 13221 c0 -10 26 -9 36 2 4 4 -2 7 -14 7 -12 0 -22 -4 -22 -9z"/>
<path d="M9409 13210 c-1 -3 -2 -24 -3 -47 -2 -33 1 -40 10 -32 7 6 11 16 8
24 -3 7 -1 16 5 20 6 3 11 11 11 16 0 6 -4 8 -9 5 -5 -4 -12 0 -14 6 -3 7 -6
11 -8 8z"/>
<path d="M10863 13199 c9 -5 22 -7 27 -4 6 3 10 1 10 -5 0 -6 5 -8 11 -4 16 9
-9 24 -41 24 -22 -1 -23 -2 -7 -11z"/>
<path d="M10813 13183 c-7 -3 -13 -11 -13 -20 0 -12 2 -12 16 2 18 17 16 25
-3 18z"/>
<path d="M12025 13180 c3 -5 8 -10 11 -10 2 0 4 5 4 10 0 6 -5 10 -11 10 -5 0
-7 -4 -4 -10z"/>
<path d="M6745 13160 c4 -6 11 -8 16 -5 14 9 11 15 -7 15 -8 0 -12 -5 -9 -10z"/>
<path d="M10718 13156 c-10 -7 -18 -16 -18 -19 0 -13 35 2 38 16 4 20 2 20
-20 3z"/>
<path d="M5777 13126 c-4 -10 -1 -13 8 -9 8 3 12 9 9 14 -7 12 -11 11 -17 -5z"/>
<path d="M9831 13113 c-7 -16 -7 -23 0 -23 6 0 7 -5 4 -10 -4 -6 -10 -8 -15
-5 -5 3 -14 -4 -20 -15 -13 -25 -9 -25 28 -2 17 10 26 24 24 35 -2 9 4 20 12
23 22 9 20 23 -3 21 -11 -1 -24 -11 -30 -24z"/>
<path d="M9868 13103 c7 -3 16 -2 19 1 4 3 -2 6 -13 5 -11 0 -14 -3 -6 -6z"/>
<path d="M10520 13050 c-11 -11 -20 -25 -20 -30 0 -15 49 22 50 38 0 17 -7 15
-30 -8z"/>
<path d="M9810 13031 c-8 -6 -18 -7 -22 -5 -4 3 -8 0 -8 -5 0 -6 5 -11 10 -11
6 0 10 -5 10 -11 0 -6 -6 -9 -14 -6 -8 3 -17 0 -19 -7 -11 -27 33 -4 47 25 8
16 14 29 13 29 -1 0 -9 -4 -17 -9z"/>
<path d="M12520 13030 c0 -5 5 -10 11 -10 5 0 7 5 4 10 -3 6 -8 10 -11 10 -2
0 -4 -4 -4 -10z"/>
<path d="M12445 12980 c3 -5 8 -10 11 -10 2 0 4 5 4 10 0 6 -5 10 -11 10 -5 0
-7 -4 -4 -10z"/>
<path d="M9747 12953 c-13 -12 -7 -23 11 -22 10 0 12 3 4 6 -6 2 -10 9 -6 14
6 10 0 12 -9 2z"/>
<path d="M12398 12949 c-2 -5 -12 -11 -23 -13 -17 -2 -36 -26 -20 -26 17 0 65
32 60 40 -8 13 -12 13 -17 -1z"/>
<path d="M12300 12889 c0 -5 -4 -7 -10 -4 -5 3 -10 -1 -10 -9 0 -20 14 -20 30
-1 7 8 16 12 21 9 5 -3 9 0 9 5 0 6 -9 11 -20 11 -11 0 -20 -5 -20 -11z"/>
<path d="M5338 12813 c-2 -4 -3 -17 -2 -28 3 -60 3 -60 17 -46 9 11 9 14 0 18
-10 3 -10 10 -2 25 7 13 7 24 1 30 -5 5 -11 6 -14 1z"/>
<path d="M10810 12749 c0 -20 16 -43 23 -32 3 4 -1 17 -9 28 -10 13 -14 15
-14 4z"/>
<path d="M12111 12754 c-1 -6 -11 -16 -23 -22 -14 -6 -17 -11 -8 -11 23 -1 43
15 37 30 -3 8 -6 9 -6 3z"/>
<path d="M10732 12704 c-6 -7 -19 -11 -27 -8 -8 4 -15 2 -15 -3 0 -17 13 -23
26 -12 8 6 21 9 29 5 16 -6 19 2 7 20 -5 9 -10 8 -20 -2z"/>
<path d="M10776 12704 c-5 -14 -4 -15 9 -4 17 14 19 20 6 20 -5 0 -12 -7 -15
-16z"/>
<path d="M4945 12677 c-13 -10 -15 -16 -6 -21 6 -4 9 -12 6 -17 -4 -5 -1 -9 5
-9 6 0 8 -4 5 -10 -3 -5 1 -10 9 -10 10 0 13 -6 10 -15 -4 -8 -1 -15 5 -15 6
0 11 -7 11 -15 0 -9 6 -12 16 -8 11 4 12 9 5 16 -6 6 -11 21 -11 34 0 12 -9
31 -21 42 -12 11 -18 24 -14 30 8 15 3 14 -20 -2z"/>
<path d="M10627 12666 c-4 -10 -13 -16 -22 -13 -10 4 -12 1 -8 -10 5 -13 3
-13 -15 -4 -16 9 -24 8 -36 -4 -8 -8 -24 -15 -35 -15 -12 0 -21 -4 -21 -8 0
-5 -10 -14 -22 -20 -19 -9 -14 -11 30 -6 49 4 119 34 133 56 4 6 23 10 43 10
41 0 44 3 15 18 -15 8 -24 8 -34 0 -10 -8 -14 -8 -17 2 -3 8 -7 6 -11 -6z"/>
<path d="M7756 12627 c3 -10 9 -15 12 -12 3 3 0 11 -7 18 -10 9 -11 8 -5 -6z"/>
<path d="M7648 12614 c-5 -5 -28 -11 -50 -13 -8 -1 -58 -50 -58 -57 0 -2 9 1
20 8 11 7 20 16 20 20 0 5 7 8 15 8 8 0 15 3 15 8 0 4 11 8 24 8 17 1 23 -2
19 -12 -6 -16 15 -18 36 -5 25 16 20 37 -8 39 -15 1 -30 -1 -33 -4z"/>
<path d="M7082 12540 c-7 -11 -8 -20 -3 -20 9 0 24 30 18 36 -1 2 -8 -6 -15
-16z"/>
<path d="M5015 12540 c3 -5 8 -10 11 -10 2 0 4 5 4 10 0 6 -5 10 -11 10 -5 0
-7 -4 -4 -10z"/>
<path d="M10348 12529 c-21 -11 -38 -25 -37 -32 0 -9 2 -9 6 1 7 17 21 15 26
-5 4 -14 5 -12 6 5 0 12 4 21 9 20 12 -2 42 14 42 23 0 13 -10 11 -52 -12z"/>
<path d="M10177 12529 c7 -7 15 -10 18 -7 3 3 -2 9 -12 12 -14 6 -15 5 -6 -5z"/>
<path d="M4990 12506 c0 -8 7 -16 15 -20 10 -4 15 1 15 14 0 11 -7 20 -15 20
-8 0 -15 -6 -15 -14z"/>
<path d="M7410 12510 c0 -5 4 -10 9 -10 6 0 13 5 16 10 3 6 -1 10 -9 10 -9 0
-16 -4 -16 -10z"/>
<path d="M7056 12496 c3 -8 -3 -19 -15 -26 -26 -13 -27 -30 -3 -31 10 0 12 -3
5 -6 -7 -2 -13 -11 -13 -19 0 -9 -4 -13 -9 -10 -4 3 -13 -6 -20 -20 -14 -32
-14 -45 2 -41 6 1 11 -6 11 -15 -1 -10 4 -18 12 -18 8 0 14 -8 14 -17 1 -17 1
-17 11 0 12 20 31 13 22 -8 -3 -8 0 -15 6 -15 6 0 11 5 11 10 0 6 6 10 14 10
8 0 28 13 45 29 16 15 32 27 34 24 2 -2 10 3 17 12 7 8 18 15 25 15 13 0 25
21 25 46 0 20 -17 17 -37 -6 -10 -11 -24 -20 -32 -20 -11 0 -10 4 5 15 17 15
16 15 -12 1 -17 -8 -41 -12 -53 -9 -30 8 -55 57 -42 82 11 20 5 31 -15 31 -8
0 -11 -6 -8 -14z m99 -146 c3 -5 -1 -10 -10 -10 -9 0 -13 5 -10 10 3 6 8 10
10 10 2 0 7 -4 10 -10z m-39 -11 c8 -13 -13 -36 -23 -25 -4 4 -1 12 7 17 13 9
12 10 -2 5 -10 -3 -20 -1 -23 4 -4 6 3 10 14 10 11 0 23 -5 27 -11z"/>
<path d="M10155 12500 c-16 -7 -12 -8 17 -8 21 1 35 5 32 10 -6 10 -22 9 -49
-2z"/>
<path d="M10247 12471 c4 -15 1 -21 -12 -21 -11 0 -15 5 -11 15 3 9 0 15 -10
15 -8 0 -12 -4 -9 -10 3 -5 2 -10 -4 -10 -5 0 -12 6 -14 13 -3 7 -6 6 -6 -5
-1 -9 4 -20 10 -24 8 -4 7 -9 -2 -14 -7 -5 -20 -3 -30 3 -14 9 -21 9 -31 -1
-9 -9 -8 -12 5 -12 19 0 23 -15 7 -25 -5 -3 -10 -1 -10 4 0 6 -5 10 -12 9 -17
-4 -78 -65 -78 -78 0 -6 -4 -9 -9 -6 -10 7 -33 -18 -25 -27 3 -3 -4 -3 -17 0
-14 4 -20 2 -15 -5 7 -12 -4 -21 -32 -27 -11 -2 -37 -19 -58 -39 -21 -20 -47
-39 -56 -42 -19 -6 -25 -24 -8 -24 6 0 10 -5 10 -11 0 -5 -4 -8 -9 -5 -5 3
-14 -1 -21 -9 -9 -11 -16 -12 -25 -5 -9 8 -14 5 -18 -11 -4 -16 -11 -20 -27
-16 -16 4 -20 2 -16 -9 3 -8 -1 -17 -9 -20 -8 -4 -12 -11 -8 -17 4 -6 0 -8
-11 -4 -10 4 -15 3 -11 -3 3 -6 -1 -10 -9 -10 -8 0 -20 -9 -26 -20 -6 -11 -17
-20 -25 -20 -14 0 -19 -12 -16 -32 0 -5 -4 -8 -9 -8 -5 0 -10 -7 -10 -15 0 -8
-3 -15 -7 -15 -14 0 -73 -57 -66 -64 3 -3 1 -6 -6 -6 -6 0 -22 -9 -33 -20 -25
-23 -54 -19 -81 13 -14 16 -18 34 -15 81 1 34 6 64 11 67 5 3 11 26 13 50 3
24 10 48 15 53 5 6 9 20 9 33 0 13 4 23 9 23 6 0 8 10 6 22 -3 12 0 27 5 33
11 13 9 55 -2 55 -4 0 -8 -11 -8 -25 0 -14 -4 -25 -10 -25 -5 0 -10 -9 -10
-20 0 -11 -4 -20 -10 -20 -5 0 -9 -3 -9 -7 1 -5 1 -19 -1 -33 -1 -23 -2 -24
-11 -5 -8 18 -9 17 -5 -4 3 -13 1 -31 -3 -40 -5 -9 -11 -27 -12 -41 -2 -14 -7
-27 -10 -30 -4 -3 -8 -21 -10 -40 -2 -19 -6 -37 -9 -40 -12 -10 -41 -80 -38
-92 1 -7 -4 -24 -12 -38 -7 -14 -15 -52 -16 -85 -1 -33 -4 -67 -5 -75 -1 -8 1
-25 5 -36 4 -14 1 -28 -10 -38 -9 -9 -13 -23 -10 -31 3 -9 1 -26 -4 -40 -11
-29 -8 -31 14 -10 9 9 17 11 21 5 3 -5 1 -10 -5 -10 -7 0 -9 -8 -5 -21 5 -14
3 -19 -3 -15 -6 4 -8 -2 -5 -14 3 -11 0 -20 -6 -20 -6 0 -11 -9 -11 -20 0 -17
3 -19 20 -10 12 7 17 16 13 27 -4 10 -2 14 4 10 7 -5 9 0 6 13 -4 16 -2 19 12
14 14 -6 16 -3 10 16 -5 15 -4 20 4 16 6 -4 15 3 20 17 6 14 14 28 19 31 6 3
13 18 17 33 3 15 19 43 35 62 27 35 30 41 30 60 0 5 21 36 48 69 70 90 87 116
84 125 -1 5 1 6 6 3 5 -3 30 17 55 44 26 27 47 47 47 43 0 -4 7 3 16 15 8 12
12 27 8 34 -4 7 -3 8 5 4 15 -10 43 13 34 27 -3 6 -1 7 5 3 7 -4 12 -2 12 3 0
6 6 11 13 11 6 0 35 22 62 49 28 27 72 62 97 78 50 32 108 88 108 105 0 7 4 7
13 0 14 -11 41 10 29 24 -4 4 -2 5 3 2 6 -4 33 9 60 28 28 18 53 34 57 34 4 0
18 11 32 25 14 14 34 25 44 25 11 0 26 8 33 18 12 15 12 16 -1 5 -16 -12 -43
-3 -40 13 1 5 -3 10 -8 12 -6 2 -8 -6 -5 -17z"/>
<path d="M7326 12472 c-3 -6 3 -12 15 -15 12 -3 19 -1 16 6 -5 15 -24 20 -31
9z"/>
<path d="M10131 12471 c-9 -6 -10 -11 -2 -15 6 -4 11 -4 11 0 0 3 7 0 16 -7
14 -12 16 -11 13 5 -5 23 -19 29 -38 17z"/>
<path d="M5020 12450 c13 -11 25 -18 28 -16 7 7 -25 36 -39 36 -7 0 -2 -9 11
-20z"/>
<path d="M4583 12421 c1 -21 8 -31 23 -34 21 -4 21 -2 9 27 -17 41 -35 45 -32
7z"/>
<path d="M7287 12439 c7 -7 15 -10 18 -7 3 3 -2 9 -12 12 -14 6 -15 5 -6 -5z"/>
<path d="M5339 12428 c-6 -21 -5 -38 2 -38 5 0 9 9 9 20 0 16 -7 28 -11 18z"/>
<path d="M7270 12420 c0 -5 5 -10 11 -10 5 0 7 5 4 10 -3 6 -8 10 -11 10 -2 0
-4 -4 -4 -10z"/>
<path d="M5372 12343 c-1 -27 -1 -27 13 -9 18 24 19 36 2 36 -7 0 -14 -12 -15
-27z"/>
<path d="M6940 12220 c0 -5 5 -10 10 -10 6 0 10 5 10 10 0 6 -4 10 -10 10 -5
0 -10 -4 -10 -10z"/>
<path d="M5031 12175 l1 -50 9 39 c6 26 6 43 -1 50 -7 7 -10 -6 -9 -39z"/>
<path d="M6975 12200 c3 -5 8 -10 11 -10 2 0 4 5 4 10 0 6 -5 10 -11 10 -5 0
-7 -4 -4 -10z"/>
<path d="M6940 12180 c0 -5 -7 -10 -15 -10 -19 0 -20 -16 -1 -23 8 -3 16 2 19
15 3 11 10 17 16 13 6 -3 11 -1 11 4 0 6 -7 11 -15 11 -8 0 -15 -4 -15 -10z"/>
<path d="M6884 12131 c3 -5 -8 -14 -24 -21 -17 -7 -30 -17 -30 -23 0 -5 -12
-20 -26 -33 -14 -13 -23 -28 -20 -33 9 -13 57 12 51 26 -2 7 -1 12 3 12 18 -3
32 2 32 12 0 5 -4 8 -8 5 -5 -3 -9 1 -9 9 0 11 4 12 14 3 16 -13 19 -11 28 25
5 18 3 27 -5 27 -6 0 -9 -4 -6 -9z"/>
<path d="M12927 12054 c-3 -4 -2 -15 4 -25 6 -13 6 -19 -1 -19 -5 0 -10 -7
-10 -16 0 -9 -6 -30 -13 -47 -8 -18 -19 -47 -25 -65 -9 -29 -9 -32 4 -21 12
10 14 8 11 -7 -2 -11 -9 -30 -17 -44 -13 -24 -12 -24 6 -10 27 21 34 32 34 56
0 19 26 109 45 155 4 11 0 18 -15 22 -12 3 -19 10 -15 16 7 12 2 15 -8 5z"/>
<path d="M4467 12036 c-4 -10 -3 -24 3 -31 8 -9 7 -15 -2 -18 -8 -3 -6 -6 5
-6 10 -1 16 -5 13 -10 -4 -5 4 -7 16 -4 13 3 19 1 13 -4 -15 -12 -17 -33 -2
-34 6 0 24 -2 39 -4 15 -2 30 1 33 6 4 5 -1 9 -9 9 -9 0 -16 7 -16 14 0 20
-44 66 -63 66 -9 0 -17 8 -19 18 -3 16 -4 15 -11 -2z"/>
<path d="M4208 11993 c-10 -12 -13 -25 -8 -38 5 -13 2 -29 -7 -43 -13 -22 -13
-23 4 -20 10 2 17 11 17 21 -1 9 3 17 9 17 6 0 7 3 4 7 -4 3 -2 12 4 20 9 10
8 13 -1 13 -7 0 -10 8 -7 20 6 24 4 25 -15 3z"/>
<path d="M6763 11999 c-6 -6 -9 -19 -6 -28 4 -12 2 -13 -4 -3 -5 7 -17 10 -26
6 -21 -8 -22 -24 -2 -24 8 0 15 -6 15 -12 0 -7 10 2 21 19 22 34 23 63 2 42z"/>
<path d="M6695 11930 c3 -5 11 -10 16 -10 6 0 7 5 4 10 -3 6 -11 10 -16 10 -6
0 -7 -4 -4 -10z"/>
<path d="M4864 11919 c-5 -9 -2 -10 9 -6 20 8 21 3 5 -22 -15 -25 4 -51 34
-48 12 1 23 -3 25 -10 3 -7 -3 -10 -15 -6 -27 7 -32 -16 -13 -58 17 -37 43
-43 34 -9 -4 14 0 20 11 20 19 0 21 11 5 27 -8 8 -8 13 0 17 12 8 15 27 4 25
-20 -3 -26 2 -13 11 21 14 -5 13 -32 -1 -11 -6 -22 -9 -24 -6 -9 8 8 37 22 37
20 0 17 16 -3 24 -10 3 -23 8 -30 12 -6 3 -15 0 -19 -7z"/>
<path d="M6664 11899 c-17 -5 -37 -16 -45 -25 -19 -23 -19 -54 1 -54 22 0 60
33 60 53 0 9 8 17 18 19 9 2 13 6 7 9 -5 3 -24 2 -41 -2z m-17 -41 c-3 -8 -6
-5 -6 6 -1 11 2 17 5 13 3 -3 4 -12 1 -19z"/>
<path d="M4600 11890 c0 -6 -4 -8 -10 -5 -5 3 -10 1 -10 -4 0 -13 27 -14 35
-2 3 5 1 12 -5 16 -5 3 -10 1 -10 -5z"/>
<path d="M4179 11880 c-6 -20 -5 -50 1 -50 13 0 19 26 9 41 -5 8 -9 12 -10 9z"/>
<path d="M6600 11801 c0 -6 5 -13 10 -16 6 -3 10 1 10 9 0 9 -4 16 -10 16 -5
0 -10 -4 -10 -9z"/>
<path d="M12853 11768 c3 -10 2 -20 -3 -23 -6 -4 -10 -11 -10 -18 0 -6 7 -1
16 12 13 18 14 25 4 34 -10 9 -12 8 -7 -5z"/>
<path d="M12835 11700 c-3 -5 -1 -10 4 -10 6 0 11 5 11 10 0 6 -2 10 -4 10 -3
0 -8 -4 -11 -10z"/>
<path d="M4956 11670 c-10 -40 7 -130 25 -130 4 0 13 -10 20 -21 8 -16 8 -23
-1 -29 -9 -6 -8 -15 4 -38 10 -19 16 -56 16 -97 0 -36 7 -82 15 -102 8 -19 15
-50 15 -69 0 -18 5 -45 10 -60 9 -24 7 -31 -17 -56 -33 -34 -57 -35 -133 -3
-61 26 -100 32 -100 16 0 -17 33 -36 67 -38 37 -2 60 -13 27 -13 -13 0 -5 -12
31 -45 28 -24 54 -44 59 -45 4 0 30 -18 57 -41 40 -33 54 -40 75 -35 20 5 23
10 14 20 -8 11 -8 15 2 18 10 4 10 8 -1 21 -11 14 -11 17 0 17 20 0 57 59 63
100 7 40 17 115 19 145 1 11 5 22 8 25 6 5 13 46 26 158 3 28 8 52 12 52 13 0
12 123 -1 132 -11 6 -10 8 0 8 7 0 11 4 8 8 -3 4 -1 24 3 44 7 29 6 35 -5 31
-17 -6 -22 -67 -12 -123 3 -14 3 -19 1 -12 -8 22 -35 14 -32 -10 1 -13 -1 -31
-5 -40 -4 -9 -5 -22 -1 -28 3 -5 -1 -10 -11 -10 -11 0 -15 -6 -11 -20 3 -12
-4 -29 -17 -43 -11 -12 -28 -33 -37 -46 -14 -22 -17 -23 -40 -10 -13 7 -28 12
-32 11 -5 -1 -6 2 -2 8 3 5 -1 20 -9 32 -10 13 -16 44 -16 75 0 52 -14 99 -36
118 -7 6 -15 27 -18 47 -5 27 -11 36 -21 31 -17 -6 -20 8 -6 23 5 5 5 18 1 29
-7 19 -8 18 -14 -5z"/>
<path d="M12820 11658 c-12 -22 -12 -22 6 -6 10 10 15 20 12 24 -4 3 -12 -5
-18 -18z"/>
<path d="M4131 11634 c0 -11 3 -14 6 -6 3 7 2 16 -1 19 -3 4 -6 -2 -5 -13z"/>
<path d="M9240 11600 c0 -19 3 -21 12 -12 9 9 9 15 0 24 -9 9 -12 7 -12 -12z"/>
<path d="M4070 11491 c0 -5 -3 -18 -7 -28 -6 -16 -5 -16 10 -4 19 15 23 41 7
41 -5 0 -10 -4 -10 -9z"/>
<path d="M4050 11400 c6 -11 15 -20 20 -20 6 0 2 9 -7 20 -10 11 -19 20 -21
20 -1 0 2 -9 8 -20z"/>
<path d="M4020 11344 c0 -11 -9 -39 -20 -62 -25 -51 -25 -55 0 -40 13 8 19 20
16 31 -2 10 4 21 15 27 23 13 24 20 4 46 -14 19 -14 19 -15 -2z"/>
<path d="M7326 11232 c-2 -4 -35 -7 -72 -6 -82 3 -103 -6 -97 -40 4 -21 8 -24
24 -16 12 7 20 7 24 0 3 -5 20 -10 38 -10 30 0 30 1 11 16 -19 15 -19 15 3 11
17 -4 20 -1 15 12 -4 13 -3 14 9 5 8 -6 22 -14 33 -18 14 -5 17 -2 12 9 -3 9
0 15 9 15 8 0 15 4 15 9 0 14 -18 23 -24 13z"/>
<path d="M7433 11233 c-34 -7 -28 -20 7 -15 17 2 30 8 30 13 0 5 -3 8 -7 8 -5
-1 -18 -4 -30 -6z"/>
<path d="M7490 11229 c0 -5 9 -9 20 -9 11 0 20 2 20 4 0 2 -9 6 -20 9 -11 3
-20 1 -20 -4z"/>
<path d="M7550 11230 c-12 -8 -11 -10 7 -10 12 0 25 5 28 10 8 13 -15 13 -35
0z"/>
<path d="M7605 11230 c-3 -5 2 -10 12 -10 17 -1 17 -2 -1 -15 -16 -12 -17 -18
-8 -27 9 -9 12 -9 12 1 0 7 5 9 10 6 6 -4 8 -11 5 -16 -4 -5 -2 -9 4 -9 5 0
13 5 16 10 3 6 16 10 28 9 21 0 21 -1 2 -9 -28 -12 -2 -12 30 0 17 7 24 7 20
0 -4 -6 7 -10 24 -10 17 0 31 5 31 10 0 7 6 7 19 0 11 -5 30 -10 43 -9 22 0
22 1 3 9 -16 7 -17 9 -3 9 9 1 24 -6 32 -14 11 -11 21 -13 33 -7 10 5 24 7 32
4 8 -2 11 0 8 5 -4 7 9 9 37 6 29 -4 46 -1 51 7 6 10 2 12 -13 8 -12 -3 -22
-2 -24 2 -2 5 -46 11 -98 15 -52 4 -108 10 -125 14 -16 5 -55 9 -85 10 -30 1
-62 4 -72 7 -9 2 -19 0 -23 -6z m55 -14 c0 -3 -4 -8 -10 -11 -5 -3 -10 -1 -10
4 0 6 5 11 10 11 6 0 10 -2 10 -4z"/>
<path d="M7352 11209 c-16 -25 -13 -30 15 -23 26 7 39 44 14 44 -9 0 -22 -9
-29 -21z"/>
<path d="M7003 11197 c-9 -15 3 -18 33 -7 24 8 26 8 13 -2 -8 -7 -18 -24 -22
-38 -6 -24 -5 -24 19 5 17 19 28 26 31 18 2 -7 11 -13 18 -13 7 0 15 6 18 13
3 9 7 9 21 -2 14 -12 16 -11 13 10 -4 22 -9 23 -71 24 -37 1 -70 -3 -73 -8z"/>
<path d="M6969 11187 c-8 -6 -21 -20 -28 -29 -12 -17 -11 -17 20 -12 19 4 39
11 44 17 7 6 3 8 -12 4 -24 -5 -32 8 -10 16 6 2 9 7 6 11 -3 3 -12 0 -20 -7z"/>
<path d="M7475 11190 c-3 -5 -1 -10 4 -10 6 0 11 5 11 10 0 6 -2 10 -4 10 -3
0 -8 -4 -11 -10z"/>
<path d="M3950 11176 c-8 -11 -9 -20 -1 -33 9 -16 10 -15 11 9 0 17 6 28 18
31 14 4 14 5 1 6 -9 0 -22 -6 -29 -13z"/>
<path d="M7410 11177 c0 -5 -4 -5 -10 -2 -5 3 -10 2 -10 -3 0 -6 16 -10 35 -9
20 1 35 6 35 13 0 7 -11 11 -25 10 -14 0 -25 -5 -25 -9z"/>
<path d="M8073 11174 c-17 -18 5 -34 42 -29 17 1 32 -1 35 -5 3 -5 17 -11 32
-14 20 -3 25 -1 23 12 -1 12 -10 16 -29 14 -14 -1 -26 1 -26 6 0 5 -15 13 -33
19 -24 7 -36 7 -44 -3z"/>
<path d="M6915 11170 c-3 -5 -2 -10 4 -10 5 0 13 5 16 10 3 6 2 10 -4 10 -5 0
-13 -4 -16 -10z"/>
<path d="M7338 11163 c7 -3 16 -2 19 1 4 3 -2 6 -13 5 -11 0 -14 -3 -6 -6z"/>
<path d="M7987 11149 c7 -7 15 -10 18 -7 3 3 -2 9 -12 12 -14 6 -15 5 -6 -5z"/>
<path d="M6852 11142 c-12 -2 -20 -8 -17 -13 4 -5 1 -9 -4 -9 -6 0 -11 5 -11
10 0 6 -5 10 -11 10 -5 0 -7 -5 -3 -11 5 -9 -1 -10 -20 -5 -32 8 -69 -1 -61
-15 4 -5 1 -9 -4 -9 -6 0 -11 -12 -11 -26 0 -21 3 -24 13 -15 8 6 17 8 21 4 4
-4 4 1 0 12 -6 14 -4 17 9 12 8 -3 18 -1 21 6 5 9 7 9 12 0 3 -7 10 -13 15
-13 6 0 7 5 4 10 -3 6 2 10 13 10 10 0 22 3 26 7 4 4 19 7 34 8 17 0 28 6 30
17 3 17 -2 18 -56 10z"/>
<path d="M13972 11134 c-7 -8 -8 -14 -3 -14 10 0 25 19 20 25 -2 1 -10 -3 -17
-11z"/>
<path d="M14005 11140 c-3 -5 1 -10 10 -10 8 0 20 -10 25 -22 8 -21 9 -20 9
10 1 25 -3 32 -18 32 -11 0 -23 -4 -26 -10z"/>
<path d="M3925 11130 c-3 -5 -1 -10 4 -10 6 0 11 5 11 10 0 6 -2 10 -4 10 -3
0 -8 -4 -11 -10z"/>
<path d="M8223 11128 c-2 -5 8 -8 22 -8 15 0 36 -5 48 -12 33 -18 57 -20 57
-4 0 22 -115 43 -127 24z"/>
<path d="M4658 11123 c7 -3 16 -2 19 1 4 3 -2 6 -13 5 -11 0 -14 -3 -6 -6z"/>
<path d="M13839 11108 c-1 -7 -1 -16 0 -20 2 -12 -17 -10 -24 2 -3 6 -10 10
-16 10 -5 0 -1 -8 9 -18 10 -10 28 -18 40 -18 25 0 29 14 7 22 -12 5 -13 10
-4 20 8 10 8 14 0 14 -6 0 -12 -6 -12 -12z"/>
<path d="M4750 11103 c1 -12 50 -45 50 -35 0 6 -7 13 -16 16 -8 3 -12 10 -9
16 3 5 -1 10 -9 10 -9 0 -16 -3 -16 -7z"/>
<path d="M8365 11100 c-3 -6 1 -12 9 -15 9 -3 23 -7 32 -10 20 -6 8 12 -16 25
-13 7 -21 7 -25 0z"/>
<path d="M6670 11090 c0 -5 7 -7 15 -4 8 4 15 8 15 10 0 2 -7 4 -15 4 -8 0
-15 -4 -15 -10z"/>
<path d="M3963 11083 c-17 -6 -16 -23 1 -23 8 0 16 7 20 15 6 15 1 17 -21 8z"/>
<path d="M13698 11083 c6 -2 18 -2 25 0 6 3 1 5 -13 5 -14 0 -19 -2 -12 -5z"/>
<path d="M8440 11073 c0 -16 24 -33 46 -33 18 0 21 -4 16 -22 -5 -22 -4 -22
14 -6 12 11 28 15 42 11 12 -3 22 -1 22 5 0 17 -14 22 -68 24 -28 1 -50 6 -49
11 1 5 -4 12 -10 14 -7 3 -13 1 -13 -4z"/>
<path d="M13910 11051 c0 -5 5 -13 10 -16 6 -3 10 -2 10 4 0 5 -4 13 -10 16
-5 3 -10 2 -10 -4z"/>
<path d="M6661 11034 c0 -11 3 -14 6 -6 3 7 2 16 -1 19 -3 4 -6 -2 -5 -13z"/>
<path d="M13810 11040 c0 -5 5 -10 11 -10 5 0 7 5 4 10 -3 6 -8 10 -11 10 -2
0 -4 -4 -4 -10z"/>
<path d="M3925 11020 c-3 -5 1 -10 10 -10 9 0 13 5 10 10 -3 6 -8 10 -10 10
-2 0 -7 -4 -10 -10z"/>
<path d="M8605 11020 c-9 -15 4 -30 25 -30 10 0 21 -4 24 -9 3 -5 20 -11 38
-14 18 -2 48 -9 66 -15 25 -8 32 -8 29 1 -2 7 -20 15 -40 18 -20 3 -42 11 -50
17 -26 22 -86 42 -92 32z"/>
<path d="M13872 10995 c-12 -14 -22 -32 -22 -39 0 -8 -5 -18 -11 -22 -6 -3 -8
-15 -6 -26 4 -12 -2 -26 -14 -36 -24 -20 -24 -32 -1 -32 16 -1 16 -1 -1 -11
-9 -5 -22 -7 -29 -3 -8 5 -9 2 -5 -9 3 -10 2 -17 -3 -17 -5 0 -15 -14 -24 -30
-8 -17 -10 -27 -4 -24 7 4 8 2 4 -4 -4 -7 -15 -12 -24 -12 -11 0 -13 -3 -6 -8
7 -4 14 -16 16 -27 3 -14 10 -2 22 36 11 38 26 64 46 79 16 12 27 27 24 32 -3
5 11 24 31 43 23 22 33 39 29 47 -15 24 -13 68 2 68 8 0 14 5 14 10 0 17 -15
11 -38 -15z"/>
<path d="M13930 11010 c0 -5 5 -10 10 -10 6 0 10 5 10 10 0 6 -4 10 -10 10 -5
0 -10 -4 -10 -10z"/>
<path d="M3997 10989 c7 -7 15 -10 18 -7 3 3 -2 9 -12 12 -14 6 -15 5 -6 -5z"/>
<path d="M13900 10975 c0 -8 4 -15 8 -15 5 0 9 7 9 15 0 8 -4 15 -9 15 -4 0
-8 -7 -8 -15z"/>
<path d="M13930 10979 c0 -5 5 -7 10 -4 6 3 10 8 10 11 0 2 -4 4 -10 4 -5 0
-10 -5 -10 -11z"/>
<path d="M3970 10970 c0 -5 5 -10 10 -10 6 0 10 5 10 10 0 6 -4 10 -10 10 -5
0 -10 -4 -10 -10z"/>
<path d="M3875 10960 c-3 -6 1 -7 9 -4 18 7 21 14 7 14 -6 0 -13 -4 -16 -10z"/>
<path d="M3885 10930 c3 -5 10 -10 16 -10 5 0 9 5 9 10 0 6 -7 10 -16 10 -8 0
-12 -4 -9 -10z"/>
<path d="M8808 10933 c7 -3 16 -2 19 1 4 3 -2 6 -13 5 -11 0 -14 -3 -6 -6z"/>
<path d="M3860 10916 c0 -2 7 -7 16 -10 8 -3 12 -2 9 4 -6 10 -25 14 -25 6z"/>
<path d="M3820 10810 c0 -5 5 -10 11 -10 5 0 7 5 4 10 -3 6 -8 10 -11 10 -2 0
-4 -4 -4 -10z"/>
<path d="M9098 10793 c7 -3 16 -2 19 1 4 3 -2 6 -13 5 -11 0 -14 -3 -6 -6z"/>
<path d="M9115 10770 c3 -5 8 -10 11 -10 2 0 4 5 4 10 0 6 -5 10 -11 10 -5 0
-7 -4 -4 -10z"/>
<path d="M12725 10755 c-33 -27 -25 -32 18 -12 15 6 27 18 27 25 0 18 -11 14
-45 -13z"/>
<path d="M9165 10760 c-3 -5 1 -10 10 -10 9 0 13 5 10 10 -3 6 -8 10 -10 10
-2 0 -7 -4 -10 -10z"/>
<path d="M3787 10753 c-4 -3 -7 -16 -6 -27 0 -19 1 -19 10 3 10 24 8 36 -4 24z"/>
<path d="M12641 10711 c-19 -10 -29 -21 -24 -24 6 -4 23 5 39 18 34 29 31 31
-15 6z"/>
<path d="M13716 10675 c-3 -9 -6 -24 -5 -33 0 -9 5 -4 10 12 9 32 6 48 -5 21z"/>
<path d="M13679 10631 c8 -5 10 -14 6 -22 -6 -11 -5 -11 5 -2 14 12 6 33 -13
33 -8 0 -7 -3 2 -9z"/>
<path d="M11320 10500 c0 -5 5 -10 11 -10 5 0 7 5 4 10 -3 6 -8 10 -11 10 -2
0 -4 -4 -4 -10z"/>
<path d="M11290 10421 c0 -22 17 -37 28 -26 4 4 1 10 -6 12 -6 3 -10 9 -7 13
3 5 1 11 -5 15 -5 3 -10 -3 -10 -14z"/>
<path d="M11280 10369 c0 -11 7 -19 16 -19 8 0 13 4 10 9 -4 5 -1 11 6 13 7 3
2 7 -10 10 -17 5 -22 2 -22 -13z"/>
<path d="M11266 10322 c-2 -4 -1 -14 5 -22 7 -12 9 -10 9 8 0 23 -5 28 -14 14z"/>
<path d="M11240 10203 c0 -4 5 -15 10 -23 8 -13 10 -13 10 2 0 9 -4 20 -10 23
-5 3 -10 3 -10 -2z"/>
<path d="M12030 10200 c-8 -26 -7 -41 2 -32 6 6 8 16 5 24 -3 7 -6 11 -7 8z"/>
<path d="M12695 10150 c4 -6 11 -8 16 -5 14 9 11 15 -7 15 -8 0 -12 -5 -9 -10z"/>
<path d="M11233 10118 c-15 -41 -17 -72 -3 -63 5 3 7 12 4 19 -3 8 1 16 8 18
9 2 12 13 8 32 l-5 29 -12 -35z"/>
<path d="M12643 10106 c5 -12 0 -16 -21 -16 -15 0 -40 -7 -56 -15 -15 -8 -36
-15 -45 -15 -9 0 -22 -5 -29 -12 -7 -7 -22 -13 -35 -13 -13 0 -21 -5 -19 -14
2 -9 -4 -12 -18 -8 -14 4 -25 -1 -33 -14 -7 -11 -39 -36 -72 -55 -80 -46 -99
-58 -105 -65 -3 -3 -16 -12 -30 -19 -44 -23 -91 -64 -106 -93 -8 -15 -19 -25
-25 -21 -5 3 -20 -1 -33 -9 -36 -24 -69 -25 -88 -1 -20 25 -29 181 -11 192 6
4 9 19 7 35 -2 18 2 27 11 27 9 0 12 8 10 20 -2 11 0 18 5 15 5 -3 14 4 21 17
9 16 9 23 0 26 -6 2 -9 8 -5 13 3 5 1 9 -3 9 -15 0 -33 -23 -33 -42 0 -10 -4
-18 -10 -18 -5 0 -10 -11 -10 -24 0 -14 -5 -28 -11 -32 -8 -5 -8 -8 0 -13 7
-5 4 -14 -9 -29 -21 -22 -54 -102 -43 -102 3 0 -2 -11 -10 -24 -11 -17 -16
-48 -16 -108 0 -95 -27 -187 -63 -212 -11 -8 -17 -19 -13 -25 3 -6 -1 -11 -9
-11 -8 0 -21 -10 -27 -22 -7 -13 -18 -27 -25 -31 -8 -4 -14 -15 -14 -23 0 -8
-5 -12 -10 -9 -7 4 -9 -3 -6 -20 3 -18 1 -25 -7 -22 -7 2 -18 -10 -25 -26 -7
-17 -15 -27 -18 -24 -8 7 -34 -17 -34 -31 0 -6 6 -13 13 -15 7 -3 5 -6 -6 -6
-33 -2 -65 -31 -63 -56 2 -17 -1 -22 -12 -17 -11 4 -14 1 -9 -11 4 -11 -1 -22
-13 -29 -11 -7 -20 -18 -20 -25 0 -7 -5 -13 -11 -13 -6 0 -8 -7 -5 -16 4 -11
-1 -18 -14 -21 -22 -6 -27 -39 -8 -45 7 -3 2 -7 -10 -10 -12 -4 -20 -2 -16 3
3 5 0 9 -5 9 -6 0 -10 -10 -8 -22 1 -14 -3 -22 -10 -20 -8 1 -13 -8 -13 -23 0
-28 -67 -99 -98 -102 -26 -3 -72 40 -73 69 -1 13 -3 41 -4 63 -5 73 -5 239 0
272 2 18 0 35 -6 38 -5 4 -9 -2 -9 -12 0 -10 -7 -29 -16 -41 -21 -31 -23 -45
-24 -215 -2 -366 0 -448 11 -441 8 4 9 -1 5 -17 -3 -13 -3 -18 0 -11 3 6 13
12 22 12 15 0 15 -2 2 -10 -10 -6 -11 -10 -2 -10 6 0 11 -3 11 -7 -4 -23 3
-23 22 1 11 14 17 30 14 36 -3 5 3 10 15 10 12 0 18 5 15 10 -3 6 -3 10 2 10
13 0 46 77 47 110 1 16 4 30 7 30 5 0 72 116 74 130 2 11 40 85 46 90 4 3 9
15 13 28 4 12 12 22 17 22 5 0 9 7 9 15 0 9 14 29 30 45 17 16 30 36 30 43 0
8 15 31 33 51 19 20 40 49 48 63 8 15 23 36 34 48 92 99 115 128 110 136 -4 5
0 9 7 9 15 0 88 60 127 103 14 16 45 49 69 75 23 25 42 51 42 56 0 6 17 22 37
36 20 14 55 42 77 62 22 21 48 40 57 43 9 3 35 23 58 45 23 22 51 40 61 40 11
0 20 4 20 9 0 5 8 12 18 15 9 3 32 19 50 34 18 15 57 40 87 56 36 18 52 32 49
41 -4 10 8 16 43 21 26 4 53 13 58 21 6 8 21 19 34 26 26 13 30 29 10 36 -8 2
-10 -2 -6 -13z"/>
<path d="M11220 10020 c0 -5 5 -10 10 -10 6 0 10 5 10 10 0 6 -4 10 -10 10 -5
0 -10 -4 -10 -10z"/>
<path d="M9002 9933 c-61 -87 -186 -223 -203 -223 -5 0 -9 -6 -9 -14 0 -7 -15
-19 -32 -27 -18 -7 -55 -27 -83 -44 -68 -43 -115 -65 -135 -65 -10 0 -23 -7
-30 -15 -7 -9 -15 -13 -18 -10 -3 3 -15 -1 -26 -9 -12 -7 -42 -16 -66 -19 -25
-3 -88 -15 -140 -27 -106 -24 -314 -30 -363 -11 -16 6 -43 11 -60 11 -53 0
-189 31 -245 56 -29 13 -56 24 -61 24 -4 0 -21 7 -37 16 -103 56 -219 118
-281 149 -39 20 -77 43 -84 51 -6 8 -20 14 -30 14 -11 0 -57 18 -104 40 -47
22 -95 40 -107 40 -13 0 -45 7 -73 16 -66 20 -252 17 -260 -5 -3 -8 -1 -19 5
-25 7 -7 10 -6 10 3 0 11 3 11 15 1 8 -6 23 -9 35 -5 11 3 20 3 20 -2 0 -5 8
-10 18 -11 118 -13 234 -37 270 -56 45 -23 81 -66 93 -110 6 -22 17 -54 25
-69 8 -16 14 -34 14 -40 0 -6 6 -18 14 -26 14 -16 40 -61 79 -134 19 -37 129
-151 164 -171 12 -6 20 -4 30 10 7 10 13 23 13 28 0 6 -40 53 -89 104 -102
105 -133 168 -111 222 17 40 67 50 107 22 15 -10 46 -27 68 -38 22 -10 56 -27
75 -39 19 -11 58 -26 85 -33 28 -7 75 -25 105 -40 30 -14 69 -27 87 -28 18 -1
47 -8 65 -17 25 -12 44 -14 71 -8 20 5 34 5 32 0 -3 -4 7 -15 22 -23 62 -34
113 -98 113 -141 0 -29 54 -110 119 -177 61 -63 131 -87 131 -44 0 7 -25 34
-56 61 -70 60 -122 140 -130 200 -6 40 -4 48 22 74 40 40 143 70 247 72 59 1
92 6 117 20 19 10 67 25 106 33 59 12 78 12 108 2 39 -14 100 -71 111 -104 3
-12 15 -24 26 -27 10 -4 19 -10 19 -15 0 -29 104 -103 160 -115 19 -4 41 -12
49 -19 12 -9 13 -8 6 3 -6 10 -4 12 5 6 7 -4 29 -8 50 -9 44 -3 45 20 1 30
-14 3 -39 12 -55 19 -16 7 -36 11 -45 7 -9 -3 -12 -1 -8 3 4 5 -1 14 -12 19
-37 20 -113 99 -147 152 -47 74 -47 119 2 168 20 20 40 36 44 36 11 0 68 57
80 80 6 11 35 35 65 55 63 42 69 41 155 -16 33 -21 62 -39 66 -39 4 0 15 -6
23 -14 9 -7 37 -21 64 -31 26 -10 47 -22 47 -27 0 -5 18 -7 40 -4 22 2 40 1
40 -4 0 -4 6 -10 14 -13 10 -4 12 0 9 14 -3 11 0 19 6 19 7 0 9 -5 5 -12 -5
-8 -2 -9 12 -3 10 4 29 7 42 6 13 0 20 3 17 9 -3 6 -19 10 -36 10 -16 0 -29 4
-29 9 0 5 -14 12 -31 16 -68 15 -174 72 -250 136 -68 56 -76 66 -84 109 -6 33
-30 70 -45 70 -3 0 -34 -39 -68 -87z"/>
<path d="M11217 9980 c-3 -11 -2 -20 3 -20 12 0 21 28 11 35 -5 2 -11 -4 -14
-15z"/>
<path d="M13200 9821 c0 -6 4 -13 10 -16 6 -3 7 1 4 9 -7 18 -14 21 -14 7z"/>
<path d="M3632 9718 c-6 -20 -5 -40 1 -52 7 -15 6 -18 -6 -13 -9 3 -18 -3 -25
-17 -18 -39 -155 -186 -174 -186 -5 0 -10 0 -13 0 -3 0 -14 -9 -25 -20 -11
-11 -27 -17 -37 -14 -15 5 -16 4 -3 -5 13 -9 13 -11 -1 -11 -22 0 -32 -27 -14
-34 9 -3 12 0 9 8 -7 17 31 27 45 13 8 -8 11 -6 11 7 0 13 5 17 20 13 13 -3
20 0 20 9 0 8 8 14 18 14 10 0 22 3 26 8 4 4 13 7 19 7 7 0 11 8 11 18 -1 9 2
15 6 12 5 -3 20 6 35 19 14 13 22 26 18 28 -4 3 -2 3 5 2 12 -3 46 28 76 71
11 16 24 20 63 18 26 -1 57 -4 68 -7 11 -2 28 -5 38 -5 9 -1 16 -7 15 -13 -2
-8 7 -13 20 -13 12 0 26 -6 31 -13 7 -11 11 -11 22 0 12 12 17 11 31 -3 9 -10
14 -19 12 -22 -3 -2 4 -7 14 -9 15 -4 18 -1 15 11 -4 14 2 16 31 13 38 -4 50
-22 16 -22 -14 0 -20 -7 -20 -21 0 -14 5 -19 18 -17 9 2 16 10 14 16 -1 7 2
12 8 12 14 0 12 -12 -7 -40 -12 -17 -13 -25 -5 -28 18 -6 4 -22 -21 -23 -12 0
-16 -3 -9 -6 6 -2 12 -16 12 -30 0 -22 -2 -24 -16 -12 -14 11 -16 10 -13 -6 2
-11 0 -26 -4 -32 -5 -7 -5 -13 0 -13 4 0 2 -4 -4 -8 -18 -11 -29 -72 -13 -72
7 0 10 6 7 14 -3 8 1 17 9 20 8 3 14 15 14 26 0 17 4 20 19 15 24 -7 41 33 20
46 -11 7 -10 9 5 9 16 0 16 2 6 16 -11 13 -10 16 8 21 24 6 29 19 10 25 -6 2
-8 10 -4 17 6 9 11 9 22 0 11 -9 14 -8 14 4 0 8 6 17 13 20 6 2 9 8 5 12 -4 4
-14 2 -22 -4 -11 -9 -16 -9 -22 0 -4 7 -3 9 3 6 6 -4 14 3 17 16 l6 22 19 -23
c11 -12 22 -18 25 -13 4 5 0 16 -8 24 -11 11 -12 17 -3 26 13 13 -2 15 -22 2
-10 -7 -18 -5 -25 5 -7 9 -33 16 -66 18 -31 2 -65 8 -75 13 -11 6 -35 18 -52
27 -19 10 -33 13 -33 7 0 -6 -7 -11 -15 -11 -18 0 -20 20 -2 20 6 1 -6 10 -28
22 -22 11 -42 24 -45 28 -9 13 -104 70 -117 70 -7 0 -16 -15 -21 -32z"/>
<path d="M4563 9655 c-29 -32 -29 -35 -10 -35 11 0 17 3 14 6 -3 4 5 15 18 26
24 19 33 38 18 38 -5 0 -22 -16 -40 -35z"/>
<path d="M11186 9664 c-8 -20 -4 -25 11 -16 7 4 9 13 4 21 -6 10 -10 9 -15 -5z"/>
<path d="M9731 9636 c-8 -10 -9 -16 -1 -21 5 -3 13 1 16 10 9 22 -1 29 -15 11z"/>
<path d="M4470 9622 c-13 -2 -33 -10 -44 -18 -24 -16 -40 -18 -31 -4 11 18
-10 10 -28 -11 -12 -14 -24 -18 -39 -13 -16 5 -20 3 -15 -10 8 -19 -11 -32
-26 -17 -8 8 -8 11 1 11 7 0 12 5 12 10 0 6 -9 10 -20 10 -11 0 -20 -4 -20
-10 0 -5 -7 -6 -17 -3 -12 5 -14 3 -8 -7 6 -10 3 -12 -13 -8 -15 4 -19 2 -15
-9 4 -11 15 -14 43 -9 20 3 40 3 43 0 3 -4 25 -7 48 -8 34 -2 47 3 70 25 15
15 37 30 48 34 12 3 21 11 21 16 0 6 10 8 23 4 12 -3 18 -3 12 2 -5 5 -12 11
-15 14 -3 2 -16 3 -30 1z"/>
<path d="M11181 9607 c-13 -21 -12 -21 5 -5 10 10 16 20 13 22 -3 3 -11 -5
-18 -17z"/>
<path d="M12998 9613 c7 -3 16 -2 19 1 4 3 -2 6 -13 5 -11 0 -14 -3 -6 -6z"/>
<path d="M12910 9545 c0 -8 7 -15 15 -15 8 0 15 4 15 9 0 5 -7 11 -15 15 -9 3
-15 0 -15 -9z"/>
<path d="M11160 9529 c0 -5 5 -7 10 -4 6 3 10 8 10 11 0 2 -4 4 -10 4 -5 0
-10 -5 -10 -11z"/>
<path d="M11187 9510 c-3 -11 -1 -20 4 -20 5 0 9 9 9 20 0 11 -2 20 -4 20 -2
0 -6 -9 -9 -20z"/>
<path d="M4196 9511 c-19 -7 -19 -8 2 -13 15 -4 22 -2 22 8 0 8 -1 14 -2 13
-2 0 -12 -4 -22 -8z"/>
<path d="M4235 9510 c-3 -5 -1 -10 4 -10 6 0 11 5 11 10 0 6 -2 10 -4 10 -3 0
-8 -4 -11 -10z"/>
<path d="M3997 9469 c3 -10 9 -16 14 -13 13 8 11 21 -5 27 -10 4 -12 0 -9 -14z"/>
<path d="M11190 9471 c0 -8 -7 -11 -15 -7 -18 6 -45 -19 -45 -42 1 -15 2 -15
11 1 5 9 19 17 30 17 20 0 37 25 25 37 -3 4 -6 1 -6 -6z"/>
<path d="M11185 9420 c3 -5 8 -10 11 -10 2 0 4 5 4 10 0 6 -5 10 -11 10 -5 0
-7 -4 -4 -10z"/>
<path d="M11155 9410 c-3 -6 1 -13 10 -16 21 -9 26 -2 10 13 -9 8 -16 9 -20 3z"/>
<path d="M11950 9409 c0 -6 5 -19 11 -30 9 -17 19 -20 67 -18 32 1 66 6 77 11
14 6 7 7 -23 4 -29 -3 -42 -1 -39 7 5 15 -37 37 -69 37 -13 0 -24 -5 -24 -11z"/>
<path d="M11146 9371 c-4 -5 -2 -20 3 -34 6 -16 6 -28 -2 -36 -6 -6 -12 -29
-13 -50 -2 -32 0 -38 11 -28 7 7 12 22 10 35 -2 17 4 26 21 32 13 5 24 15 24
22 0 9 -3 8 -10 -2 -8 -13 -10 -12 -11 5 -1 11 0 30 1 43 1 22 -23 32 -34 13z"/>
<path d="M12127 9341 c-3 -14 0 -21 9 -21 8 0 14 7 14 15 0 8 7 15 15 15 8 0
15 -4 15 -10 0 -5 9 -10 20 -10 11 0 20 -5 20 -11 0 -6 9 -9 20 -6 11 3 18 1
15 -4 -10 -16 43 -21 71 -6 16 8 35 12 43 9 9 -3 11 0 7 7 -6 9 0 10 21 5 23
-5 26 -4 16 6 -8 9 -48 14 -115 17 -57 2 -117 6 -134 9 -26 5 -32 2 -37 -15z"/>
<path d="M12435 9320 c-3 -5 1 -10 9 -10 9 0 16 5 16 10 0 6 -4 10 -9 10 -6 0
-13 -4 -16 -10z"/>
<path d="M9155 9211 c3 -6 -3 -15 -12 -21 -16 -9 -15 -10 7 -8 14 2 30 -4 37
-12 11 -13 12 -13 13 0 0 8 -4 20 -8 26 -9 13 -45 27 -37 15z"/>
<path d="M12696 8704 c-3 -9 -20 -14 -43 -14 -28 0 -42 -6 -51 -21 -8 -12 -19
-18 -28 -15 -8 3 -14 1 -14 -3 0 -12 28 -22 32 -11 4 13 78 18 108 8 29 -10
56 -58 39 -69 -6 -3 -9 -15 -7 -25 5 -18 5 -18 13 1 10 26 35 55 47 55 5 0 6
-4 3 -10 -3 -5 -2 -17 3 -27 8 -14 13 -10 32 26 23 46 21 71 -5 71 -12 0 -15
-6 -10 -22 5 -21 5 -21 -9 2 -17 28 -20 41 -8 38 4 -2 9 1 12 6 5 10 -15 16
-72 21 -24 2 -38 -2 -42 -11z m74 -34 c0 -5 -2 -10 -4 -10 -3 0 -8 5 -11 10
-3 6 -1 10 4 10 6 0 11 -4 11 -10z m0 -41 c0 -5 -7 -9 -15 -9 -15 0 -20 12 -9
23 8 8 24 -1 24 -14z"/>
<path d="M12915 8709 c-4 -6 -5 -12 -2 -15 2 -3 7 2 10 11 7 17 1 20 -8 4z"/>
<path d="M12845 8690 c-3 -6 1 -7 9 -4 18 7 21 14 7 14 -6 0 -13 -4 -16 -10z"/>
<path d="M11210 8515 c-7 -9 -11 -18 -8 -20 3 -3 11 1 18 10 7 9 11 18 8 20
-3 3 -11 -1 -18 -10z"/>
<path d="M4465 8500 c3 -5 8 -10 11 -10 2 0 4 5 4 10 0 6 -5 10 -11 10 -5 0
-7 -4 -4 -10z"/>
<path d="M11126 8487 c-3 -12 -6 -27 -6 -34 0 -17 39 -26 55 -13 22 18 18 32
-5 25 -11 -3 -20 -2 -20 3 0 6 6 12 12 14 8 3 5 9 -8 16 -19 10 -23 9 -28 -11z"/>
<path d="M4495 8360 c4 -11 7 -30 9 -43 3 -30 29 -87 39 -87 5 0 6 -4 2 -10
-3 -5 2 -17 12 -27 10 -10 20 -32 21 -48 4 -34 37 -70 54 -59 6 4 8 3 5 -3 -4
-6 1 -17 10 -24 14 -12 16 -12 9 0 -7 10 -3 12 13 6 15 -5 21 -2 21 9 0 9 -4
16 -8 16 -5 0 -16 18 -26 40 -10 22 -23 40 -31 40 -7 0 -13 6 -12 13 1 32 -4
48 -13 42 -5 -3 -10 1 -10 9 0 9 -4 16 -9 16 -5 0 -13 10 -17 22 -3 12 -13 28
-20 36 -8 7 -14 25 -14 38 0 14 -4 22 -10 19 -5 -3 -10 -1 -10 4 0 6 -5 11
-11 11 -6 0 -8 -9 -4 -20z m155 -250 c0 -5 -7 -10 -16 -10 -8 0 -12 5 -9 10 3
6 10 10 16 10 5 0 9 -4 9 -10z"/>
<path d="M11474 8263 c-7 -7 -17 -13 -23 -13 -6 0 -11 -4 -11 -10 0 -12 27
-14 32 -2 2 4 19 14 38 23 l35 17 -29 -2 c-16 0 -35 -7 -42 -13z"/>
<path d="M11380 8212 c-18 -11 -36 -24 -38 -30 -6 -19 22 -14 46 8 12 11 26
20 32 20 5 0 10 5 10 10 0 14 -11 12 -50 -8z"/>
<path d="M11247 8126 c-4 -10 -1 -13 8 -9 8 3 12 9 9 14 -7 12 -11 11 -17 -5z"/>
<path d="M4700 8060 c0 -5 -7 -10 -15 -10 -8 0 -15 -4 -15 -8 0 -13 34 -11 42
2 11 15 10 26 -2 26 -5 0 -10 -4 -10 -10z"/>
<path d="M4707 8024 c-23 -13 -26 -18 -16 -30 14 -17 36 -18 42 -1 3 8 11 3
25 -13 11 -14 18 -29 15 -33 -3 -5 -11 0 -19 10 -12 16 -13 16 -14 2 0 -17 26
-33 39 -24 4 2 8 -2 8 -10 0 -8 -5 -11 -10 -8 -6 3 -7 1 -3 -5 3 -6 20 -14 37
-17 21 -5 27 -10 19 -15 -9 -6 -9 -9 0 -15 7 -4 13 1 17 14 3 11 9 18 14 15 5
-3 7 -10 4 -15 -4 -5 -2 -9 4 -9 28 0 21 26 -15 57 -21 18 -47 40 -56 48 -10
8 -18 12 -18 8 0 -9 -36 30 -41 44 -3 8 -12 7 -32 -3z"/>
<path d="M11740 7560 c0 -5 5 -10 11 -10 5 0 7 5 4 10 -3 6 -8 10 -11 10 -2 0
-4 -4 -4 -10z"/>
<path d="M11685 7540 c3 -5 8 -10 11 -10 2 0 4 5 4 10 0 6 -5 10 -11 10 -5 0
-7 -4 -4 -10z"/>
<path d="M11650 7525 c-10 -12 -10 -15 2 -15 8 0 15 7 15 15 0 8 -1 15 -2 15
-2 0 -8 -7 -15 -15z"/>
<path d="M5288 7241 c-20 -10 -39 -17 -42 -14 -2 3 -15 -5 -28 -17 -22 -21
-58 -39 -85 -44 -7 -1 -15 -5 -18 -8 -4 -3 -28 0 -56 7 -27 7 -49 9 -49 5 0
-5 -3 -17 -6 -27 -5 -14 -4 -15 4 -4 9 13 16 12 50 -3 22 -10 45 -15 51 -12 6
4 11 2 11 -5 0 -8 4 -8 15 1 8 7 21 10 28 7 8 -3 26 6 40 19 14 13 33 24 42
24 8 0 15 3 15 8 0 4 24 16 53 26 74 27 286 24 339 -5 10 -5 22 -7 27 -5 5 3
11 0 14 -7 3 -7 33 -29 67 -48 95 -53 99 -55 123 -75 12 -11 43 -30 69 -44 27
-13 67 -43 90 -65 23 -22 53 -47 65 -56 37 -25 216 -202 236 -233 10 -15 55
-64 98 -107 86 -86 92 -103 46 -142 -18 -15 -31 -18 -71 -12 -27 3 -57 10 -67
16 -10 5 -38 9 -63 9 -26 0 -54 4 -64 10 -18 10 -128 34 -149 33 -29 -1 -33
-4 -32 -20 0 -12 2 -14 6 -5 4 10 9 8 20 -8 8 -11 20 -19 26 -18 7 1 22 -3 35
-10 12 -7 27 -10 32 -7 6 3 10 1 10 -5 0 -5 12 -9 28 -8 15 1 36 -3 47 -9 11
-6 39 -13 62 -17 71 -9 126 -45 137 -89 5 -22 1 -32 -20 -52 -15 -14 -37 -25
-50 -25 -12 0 -25 -4 -28 -9 -3 -5 -18 -12 -33 -16 -15 -3 -30 -11 -34 -16 -3
-5 -17 -12 -31 -14 -14 -3 -54 -20 -89 -38 -36 -19 -98 -44 -139 -57 -41 -12
-88 -29 -103 -37 -16 -8 -38 -16 -50 -19 -12 -2 -25 -10 -29 -18 -5 -9 -15
-13 -23 -10 -8 4 -15 1 -15 -6 0 -6 -8 -10 -17 -9 -41 4 -63 -2 -83 -23 -21
-23 -27 -44 -10 -33 6 3 10 1 10 -4 0 -6 5 -11 10 -11 6 0 10 11 10 25 0 14 4
25 10 25 5 0 7 -7 3 -16 -4 -11 -1 -15 13 -12 11 2 22 8 26 13 5 6 8 5 8 -3 0
-9 11 -7 39 7 35 18 67 28 111 35 8 1 25 8 37 14 12 7 31 12 42 12 11 0 23 5
26 10 3 6 15 10 26 10 10 0 24 8 30 18 8 12 20 17 38 14 17 -2 32 3 40 12 8 9
20 16 27 16 14 0 23 4 81 34 17 9 37 16 45 16 7 0 71 29 143 65 71 36 135 65
142 65 13 0 19 2 83 35 46 23 100 75 100 95 0 17 -33 51 -60 64 -16 7 -28 14
-95 55 -22 14 -64 46 -93 73 -30 26 -57 48 -61 48 -4 0 -14 12 -21 26 -8 14
-35 39 -60 56 -25 17 -50 38 -56 47 -7 9 -70 75 -141 147 -121 122 -226 209
-318 263 -48 28 -144 63 -155 56 -5 -3 -10 -2 -12 2 -1 5 -24 18 -49 31 -42
20 -61 22 -195 22 -124 -1 -155 -4 -186 -19z"/>
<path d="M4868 7193 c7 -3 16 -2 19 1 4 3 -2 6 -13 5 -11 0 -14 -3 -6 -6z"/>
<path d="M4968 7173 c7 -3 16 -2 19 1 4 3 -2 6 -13 5 -11 0 -14 -3 -6 -6z"/>
<path d="M3578 7043 c7 -3 16 -2 19 1 4 3 -2 6 -13 5 -11 0 -14 -3 -6 -6z"/>
<path d="M3575 6989 c-4 -11 -4 -23 -1 -26 3 -3 0 -15 -6 -26 -9 -17 -8 -19 7
-14 9 4 20 7 23 7 4 0 7 18 7 40 0 43 -19 55 -30 19z"/>
<path d="M3610 6890 c0 -11 4 -20 9 -20 5 0 7 9 4 20 -3 11 -7 20 -9 20 -2 0
-4 -9 -4 -20z"/>
<path d="M3570 6865 c0 -8 6 -15 14 -15 8 0 16 -7 20 -15 3 -8 10 -15 16 -15
19 0 10 16 -20 38 -24 18 -30 20 -30 7z"/>
<path d="M10996 6827 c3 -10 9 -15 12 -12 3 3 0 11 -7 18 -10 9 -11 8 -5 -6z"/>
<path d="M3621 6740 c0 -8 6 -24 14 -34 19 -25 19 -9 0 24 -8 14 -14 19 -14
10z"/>
<path d="M10910 6705 c10 -12 10 -15 -4 -15 -23 0 -20 -15 4 -17 15 -1 20 4
20 23 0 15 -6 24 -16 24 -14 0 -14 -3 -4 -15z"/>
<path d="M12953 6670 c-13 -5 -23 -16 -23 -25 0 -9 -9 -15 -23 -15 -28 0 -80
-37 -128 -92 -24 -26 -41 -38 -49 -33 -8 5 -11 3 -8 -6 3 -8 -5 -24 -18 -36
-20 -18 -21 -23 -9 -33 12 -10 20 -6 44 18 17 16 33 27 36 24 3 -3 5 0 5 7 0
14 20 35 38 39 6 1 16 3 20 5 19 5 82 -28 80 -42 -1 -9 4 -26 13 -38 l16 -23
21 25 c19 21 20 28 10 45 -11 17 -10 22 0 29 11 7 11 9 -2 14 -9 4 -16 14 -16
23 0 13 3 14 15 4 13 -11 14 -8 11 21 -2 18 -9 35 -15 37 -6 2 -11 11 -10 20
0 11 2 12 6 5 8 -21 18 -15 18 12 0 28 0 28 -32 15z m21 -201 c-3 -5 -10 -7
-15 -3 -5 3 -7 10 -3 15 3 5 10 7 15 3 5 -3 7 -10 3 -15z m-18 -26 c-4 -4 -11
-1 -16 7 -16 25 -11 35 7 17 9 -9 13 -20 9 -24z"/>
<path d="M10880 6648 c0 -4 -7 -8 -15 -8 -9 0 -12 -6 -8 -17 4 -11 3 -14 -5
-9 -7 4 -12 1 -12 -9 0 -8 -6 -18 -14 -21 -13 -5 -38 -55 -40 -79 -1 -5 -4
-12 -8 -15 -4 -3 2 -17 13 -30 l21 -25 -5 28 c-2 15 0 30 4 33 5 3 9 -1 9 -9
0 -7 7 -14 15 -14 8 0 15 4 15 9 0 4 6 8 14 8 21 0 31 21 15 30 -7 5 -16 7
-19 5 -3 -2 -6 5 -6 15 0 10 4 16 8 14 4 -3 8 4 8 15 0 11 5 23 10 26 6 4 8
11 4 16 -3 6 1 18 10 28 14 15 14 18 1 18 -8 0 -15 -4 -15 -9z"/>
<path d="M4925 6598 c-27 -5 -60 -12 -72 -14 -14 -3 -23 -12 -23 -22 0 -15 7
-17 43 -14 23 3 45 10 49 16 5 7 8 7 8 1 0 -6 11 -12 26 -13 14 -1 23 2 19 8
-3 6 1 10 10 10 9 0 13 -4 10 -10 -3 -5 -1 -10 4 -10 6 0 11 4 11 9 0 17 50
19 60 2 8 -14 10 -14 23 3 11 16 15 16 28 4 16 -16 84 -24 74 -8 -3 5 -1 10 4
10 18 0 26 -5 24 -12 -5 -15 15 -8 21 7 3 8 10 15 16 15 5 0 10 -7 10 -15 0
-18 4 -19 30 -2 17 10 22 9 29 -2 5 -7 14 -10 20 -7 6 4 9 12 6 17 -4 5 1 9
10 9 11 0 15 -5 11 -15 -3 -8 -1 -15 4 -15 6 0 10 5 10 10 0 6 9 10 20 10 11
0 20 -4 20 -10 0 -15 19 -12 36 5 8 8 22 11 31 8 15 -6 14 -7 -3 -14 -15 -6
-15 -8 -3 -8 9 -1 22 6 29 14 17 20 34 19 26 -1 -5 -13 -1 -15 19 -12 13 3 26
0 29 -6 2 -6 3 -1 3 11 -1 24 -32 33 -122 35 -27 0 -56 5 -62 10 -7 6 -13 6
-13 1 0 -5 -18 -9 -40 -8 -22 0 -40 4 -40 8 0 4 -9 3 -20 -3 -12 -6 -30 -8
-40 -5 -47 15 -105 14 -122 -2 -17 -15 -18 -15 -18 0 0 10 -7 17 -15 17 -8 0
-15 -4 -15 -8 0 -4 -9 -8 -20 -9 -11 -1 -18 2 -15 7 3 5 -9 4 -27 -1 -22 -6
-34 -6 -36 1 -2 5 -7 9 -10 9 -4 -1 -29 -6 -57 -11z"/>
<path d="M4727 6573 c-14 -4 -16 -8 -6 -19 9 -11 6 -14 -16 -14 -16 0 -25 -3
-21 -7 12 -12 87 -3 112 14 27 17 31 33 9 33 -8 0 -15 -5 -15 -10 0 -7 -6 -7
-19 0 -11 5 -21 9 -23 9 -2 -1 -11 -3 -21 -6z"/>
<path d="M5632 6568 c3 -7 11 -13 19 -13 8 0 18 -4 22 -10 5 -6 7 -1 5 10 -2
12 -12 21 -27 23 -16 3 -22 -1 -19 -10z"/>
<path d="M4440 6554 c0 -8 5 -12 10 -9 6 4 8 11 5 16 -9 14 -15 11 -15 -7z"/>
<path d="M5613 6540 c1 -20 8 -25 20 -14 7 8 -3 34 -13 34 -5 0 -8 -9 -7 -20z"/>
<path d="M5730 6540 c-9 -6 -10 -10 -3 -10 6 0 15 5 18 10 8 12 4 12 -15 0z"/>
<path d="M4453 6520 c-13 -5 -23 -12 -23 -16 0 -8 53 5 65 17 12 12 -12 11
-42 -1z"/>
<path d="M4545 6510 c-3 -5 -1 -10 4 -10 6 0 11 5 11 10 0 6 -2 10 -4 10 -3 0
-8 -4 -11 -10z"/>
<path d="M4606 6504 c-5 -14 -4 -15 9 -4 17 14 19 20 6 20 -5 0 -12 -7 -15
-16z"/>
<path d="M5885 6500 c3 -5 11 -10 16 -10 6 0 7 5 4 10 -3 6 -11 10 -16 10 -6
0 -7 -4 -4 -10z"/>
<path d="M4460 6486 c0 -15 24 -28 34 -19 13 14 5 33 -14 33 -11 0 -20 -6 -20
-14z"/>
<path d="M5926 6487 c3 -10 9 -15 12 -12 3 3 0 11 -7 18 -10 9 -11 8 -5 -6z"/>
<path d="M5963 6493 c9 -2 23 -2 30 0 6 3 -1 5 -18 5 -16 0 -22 -2 -12 -5z"/>
<path d="M10925 6479 c-11 -17 1 -21 15 -4 8 9 8 15 2 15 -6 0 -14 -5 -17 -11z"/>
<path d="M5986 6471 c-3 -5 1 -11 9 -15 8 -3 15 -1 15 5 0 6 5 7 12 3 7 -4 8
-3 4 4 -9 14 -33 16 -40 3z"/>
<path d="M10750 6456 c0 -20 19 -31 32 -18 7 7 3 14 -11 21 -17 10 -21 9 -21
-3z"/>
<path d="M10950 6461 c0 -11 31 -24 39 -16 3 3 -1 10 -9 15 -19 12 -30 12 -30
1z"/>
<path d="M4440 6450 c0 -5 7 -10 16 -10 8 0 12 5 9 10 -3 6 -10 10 -16 10 -5
0 -9 -4 -9 -10z"/>
<path d="M4500 6439 c0 -5 5 -7 10 -4 6 3 10 8 10 11 0 2 -4 4 -10 4 -5 0 -10
-5 -10 -11z"/>
<path d="M10748 6413 c7 -3 16 -2 19 1 4 3 -2 6 -13 5 -11 0 -14 -3 -6 -6z"/>
<path d="M12580 6369 c0 -5 5 -9 11 -9 5 0 7 -5 4 -10 -4 -6 -11 -8 -16 -5 -5
4 -9 1 -9 -4 0 -14 6 -14 31 -1 25 14 24 26 -1 33 -11 3 -20 1 -20 -4z"/>
<path d="M4452 6353 c8 -10 6 -13 -8 -14 -11 0 -14 -3 -6 -6 6 -2 12 -9 12
-14 0 -6 -4 -7 -10 -4 -5 3 -10 1 -10 -4 0 -6 5 -11 11 -11 7 0 8 -7 4 -17
-10 -24 -12 -103 -3 -103 5 0 8 -9 8 -20 0 -10 6 -23 14 -27 8 -4 16 -15 18
-23 2 -8 5 -17 8 -20 3 -3 21 -29 39 -58 30 -48 37 -53 60 -47 24 6 25 5 7 -8
-18 -13 -18 -15 12 -25 19 -7 32 -7 32 -1 0 5 -4 9 -10 9 -5 0 -10 5 -10 10 0
7 6 7 20 0 14 -7 20 -7 20 0 0 5 -4 10 -10 10 -5 0 -10 8 -10 18 0 14 -2 15
-9 3 -8 -12 -11 -9 -16 12 -4 15 -14 27 -22 27 -8 0 -12 4 -9 9 4 5 -7 20 -23
34 -17 14 -27 28 -24 31 4 3 -3 16 -14 29 -33 35 -40 65 -42 177 -1 38 -4 46
-20 46 -15 0 -17 -3 -9 -13z"/>
<path d="M12935 6350 c-3 -5 1 -10 9 -10 9 0 16 5 16 10 0 6 -4 10 -9 10 -6 0
-13 -4 -16 -10z"/>
<path d="M10680 6331 c0 -6 4 -13 10 -16 6 -3 7 1 4 9 -7 18 -14 21 -14 7z"/>
<path d="M12547 6314 c6 -15 23 -19 23 -5 0 5 -7 11 -14 14 -10 4 -13 1 -9 -9z"/>
<path d="M12496 6268 c-24 -31 -26 -48 -5 -48 5 0 9 8 9 17 0 9 3 14 6 10 9
-9 34 19 34 37 0 25 -16 19 -44 -16z"/>
<path d="M10680 6280 c-8 -5 -12 -12 -9 -15 4 -3 12 1 19 10 14 17 11 19 -10
5z"/>
<path d="M12933 6258 c-20 -33 -23 -341 -3 -377 7 -15 8 -21 1 -17 -6 4 -11 0
-11 -9 0 -9 5 -13 11 -9 6 3 16 0 21 -7 7 -11 8 -9 4 5 -4 10 -2 24 3 30 8 10
8 331 0 379 -4 20 -15 22 -26 5z"/>
<path d="M3745 6230 c3 -5 8 -10 11 -10 2 0 4 5 4 10 0 6 -5 10 -11 10 -5 0
-7 -4 -4 -10z"/>
<path d="M12404 6160 c-18 -30 -44 -47 -44 -29 0 6 -7 3 -16 -6 -9 -8 -14 -21
-11 -29 3 -7 1 -19 -4 -27 -7 -11 -9 -10 -9 4 0 10 -4 16 -9 13 -12 -8 -7 -39
6 -43 9 -3 50 35 46 43 -6 10 -2 25 5 20 5 -3 19 7 33 22 34 37 41 50 30 56
-5 4 -18 -7 -27 -24z"/>
<path d="M3750 6149 c0 -5 5 -7 10 -4 6 3 10 8 10 11 0 2 -4 4 -10 4 -5 0 -10
-5 -10 -11z"/>
<path d="M11162 6081 c-8 -4 -14 -12 -15 -17 -1 -5 -6 -8 -11 -6 -5 2 -4 -4 4
-12 10 -13 10 -16 0 -16 -7 0 -10 -8 -7 -20 3 -11 -2 -44 -10 -73 -17 -62 -18
-66 -7 -91 4 -12 4 -17 -2 -13 -6 4 -10 -21 -10 -65 1 -59 4 -72 18 -74 10 -1
17 1 16 4 -1 4 1 14 5 22 10 26 15 140 6 140 -5 0 -9 5 -9 10 0 6 9 10 20 10
12 0 20 7 20 16 0 15 26 43 41 44 4 0 41 -34 82 -76 42 -42 80 -73 86 -69 7 3
11 -2 11 -14 0 -11 6 -24 13 -28 8 -4 17 -15 20 -23 4 -8 16 -28 27 -45 11
-16 23 -38 26 -47 4 -10 13 -18 21 -18 8 0 11 -5 8 -10 -3 -6 1 -13 9 -16 9
-3 16 -17 16 -30 0 -12 6 -27 13 -31 7 -4 18 -30 25 -58 7 -27 18 -54 25 -60
7 -5 11 -17 9 -26 -1 -9 4 -22 13 -29 8 -7 15 -27 15 -45 0 -17 3 -34 6 -37 3
-4 7 -34 9 -69 3 -34 10 -77 16 -96 21 -64 -15 -284 -56 -347 -28 -42 -74 -25
-103 39 -29 63 -44 133 -44 203 -1 91 -10 122 -38 122 -27 0 -27 1 -5 -253 8
-87 8 -88 -20 -117 -16 -17 -35 -30 -42 -30 -19 0 -88 65 -136 129 -44 58 -77
127 -77 162 0 11 -7 31 -16 44 -9 13 -13 29 -9 35 3 5 1 10 -4 10 -6 0 -10 15
-9 33 2 25 -1 32 -14 31 -10 -1 -15 2 -12 7 3 5 12 9 21 9 12 0 13 3 5 13 -8
9 -11 82 -9 215 1 111 -1 202 -5 202 -5 0 -8 4 -8 10 0 5 6 7 14 4 7 -3 16 2
20 11 7 20 -2 38 -15 30 -5 -4 -9 1 -9 9 0 9 -4 16 -9 16 -9 0 -26 -77 -21
-95 6 -23 0 -79 -10 -89 -16 -16 -12 -36 8 -36 14 0 15 -2 2 -10 -11 -7 -15
-33 -16 -104 -1 -53 2 -98 7 -102 13 -8 11 -74 -2 -74 -8 0 -7 -6 2 -16 8 -9
12 -27 11 -40 -2 -13 1 -24 6 -24 15 0 24 -41 22 -101 -1 -32 3 -60 9 -63 6
-4 11 -18 11 -30 0 -27 65 -129 116 -181 18 -19 57 -46 86 -60 116 -56 144
-79 177 -150 17 -36 31 -73 31 -83 0 -9 7 -30 15 -46 8 -15 15 -35 15 -42 0
-8 7 -26 16 -39 9 -14 13 -25 9 -25 -4 0 -1 -7 6 -16 7 -9 23 -55 36 -102 12
-48 28 -91 36 -97 19 -13 44 -70 56 -123 5 -24 19 -54 30 -66 12 -12 21 -28
21 -34 0 -7 5 -12 10 -12 6 0 10 -9 10 -20 0 -11 4 -20 10 -20 5 0 7 -7 4 -15
-4 -8 -1 -15 5 -15 6 0 11 -9 11 -19 0 -10 7 -21 15 -25 8 -3 15 -13 16 -23 0
-10 8 -30 17 -44 22 -34 46 -70 94 -142 21 -32 38 -62 38 -66 0 -5 3 -11 8
-13 10 -4 62 -86 62 -98 0 -5 5 -10 11 -10 5 0 7 -5 4 -10 -4 -6 5 -25 19 -43
15 -17 30 -36 34 -42 5 -5 9 -13 10 -18 2 -12 35 -57 58 -81 11 -11 24 -33 28
-48 3 -16 13 -28 22 -28 8 0 13 -3 11 -7 -3 -5 1 -14 9 -21 8 -7 14 -9 14 -5
0 4 11 -5 23 -21 l24 -29 1 30 c0 19 -5 34 -14 37 -7 3 -11 12 -8 19 3 8 -5
23 -18 33 -13 11 -37 43 -53 73 -16 29 -35 56 -42 58 -7 3 -11 8 -8 13 2 4 -5
16 -15 28 -11 12 -20 26 -20 32 0 5 -4 10 -10 10 -5 0 -10 6 -10 14 0 7 -7 19
-15 26 -9 7 -13 15 -11 18 3 2 0 14 -7 26 -29 52 -39 98 -44 201 -3 61 -10
116 -16 123 -14 18 -13 539 2 584 7 20 10 70 7 119 -5 99 -3 92 -16 84 -5 -3
-10 -1 -10 5 0 7 8 9 21 5 19 -6 21 -4 17 19 -3 14 -1 27 3 28 5 2 10 12 12
23 2 11 9 33 16 49 16 39 12 143 -5 150 -9 3 -16 -4 -20 -19 -7 -28 -26 -37
-59 -29 -24 6 -65 -24 -65 -48 0 -9 3 -9 12 0 20 20 40 15 28 -7 -14 -27 -13
-31 10 -31 18 0 19 -2 8 -21 -11 -17 -10 -22 2 -32 16 -13 17 -31 6 -84 -6
-25 -3 -34 11 -42 10 -6 13 -11 7 -11 -14 0 -26 -40 -13 -40 5 0 9 -7 9 -15 0
-8 -6 -14 -12 -13 -9 2 -14 -13 -15 -46 -1 -27 -8 -74 -14 -105 -6 -31 -10
-67 -9 -81 6 -75 -7 -247 -22 -280 -22 -51 -26 -55 -58 -58 -32 -3 -46 8 -76
63 -61 113 -74 140 -74 157 0 10 -11 29 -25 42 -14 13 -25 32 -25 42 0 11 -7
28 -15 38 -8 11 -15 30 -15 42 0 13 -4 26 -10 29 -5 3 -10 15 -10 25 0 11 -6
34 -14 52 -8 18 -22 60 -31 93 -10 33 -21 64 -25 68 -10 11 -2 82 13 122 6 17
25 53 42 80 17 28 39 73 49 100 10 28 27 75 39 105 41 109 109 143 122 62 4
-20 11 -48 17 -62 7 -14 12 -28 14 -32 1 -5 3 -11 4 -15 1 -5 2 -11 2 -14 -1
-4 10 -9 23 -12 29 -5 33 13 14 60 -18 45 -26 200 -18 371 3 56 1 102 -3 102
-10 0 -47 -81 -54 -119 -5 -24 -12 -30 -42 -33 -47 -6 -83 2 -75 15 4 6 0 8
-10 4 -14 -5 -17 1 -18 36 -1 48 -2 52 -13 90 -5 15 -12 27 -18 27 -5 0 -6 4
-3 10 3 5 0 20 -7 32 -7 13 -11 28 -10 34 1 7 -4 14 -13 18 -8 3 -15 16 -15
29 0 13 -12 36 -26 50 -14 14 -23 31 -19 36 3 6 -3 16 -15 23 -11 7 -20 18
-20 24 0 7 -7 14 -15 18 -8 3 -14 11 -13 18 2 7 -5 13 -14 13 -9 0 -20 4 -25
9 -4 5 -3 6 5 2 18 -11 15 5 -5 21 -16 13 -16 13 6 7 l25 -6 -25 29 c-13 17
-27 28 -31 26 -5 -2 -8 5 -8 16 0 13 -7 21 -16 21 -10 0 -14 6 -11 14 7 17
-26 49 -38 39 -4 -5 -5 -3 -2 4 4 6 -9 27 -28 47 -19 20 -35 43 -35 51 0 8 -6
18 -13 22 -6 4 -19 21 -27 37 -18 36 -67 86 -83 86 -7 0 -18 -4 -25 -9z m456
-623 c15 -15 16 -28 2 -28 -5 0 -10 6 -10 14 0 8 -6 17 -12 19 -7 3 -8 6 -2 6
5 1 15 -4 22 -11z m-537 -141 c-10 -9 -11 -8 -5 6 3 10 9 15 12 12 3 -3 0 -11
-7 -18z m-1 -27 c0 -5 -4 -10 -10 -10 -5 0 -10 5 -10 10 0 6 5 10 10 10 6 0
10 -4 10 -10z m1040 -1970 c0 -5 -5 -10 -11 -10 -5 0 -7 5 -4 10 3 6 8 10 11
10 2 0 4 -4 4 -10z"/>
<path d="M12290 6030 c0 -6 7 -10 15 -10 8 0 15 2 15 4 0 2 -7 6 -15 10 -8 3
-15 1 -15 -4z"/>
<path d="M4660 5941 c0 -6 5 -13 10 -16 6 -3 10 1 10 9 0 9 -4 16 -10 16 -5 0
-10 -4 -10 -9z"/>
<path d="M5660 5920 c0 -5 5 -10 10 -10 6 0 10 5 10 10 0 6 -4 10 -10 10 -5 0
-10 -4 -10 -10z"/>
<path d="M3845 5890 c3 -5 8 -10 11 -10 2 0 4 5 4 10 0 6 -5 10 -11 10 -5 0
-7 -4 -4 -10z"/>
<path d="M12163 5873 c-15 -5 -17 -23 -4 -23 5 0 11 7 15 15 3 8 4 15 3 14 -1
0 -8 -3 -14 -6z"/>
<path d="M12918 5806 c-6 -28 0 -40 22 -49 11 -4 11 -6 -4 -6 -14 -1 -17 -6
-12 -23 3 -13 6 -29 6 -36 0 -8 5 -10 12 -6 7 5 9 2 6 -7 -3 -8 0 -20 7 -26
10 -10 15 -8 20 5 3 9 2 18 -4 20 -5 2 -7 10 -4 19 4 11 2 14 -5 9 -7 -4 -10
-2 -8 6 3 7 7 26 11 42 5 25 4 28 -15 23 -14 -3 -20 -1 -17 6 2 7 12 11 21 11
9 -1 15 3 13 10 -3 6 -10 10 -16 9 -6 -2 -11 2 -11 7 0 21 -18 9 -22 -14z"/>
<path d="M3865 5810 c-3 -5 -1 -10 4 -10 6 0 11 5 11 10 0 6 -2 10 -4 10 -3 0
-8 -4 -11 -10z"/>
<path d="M3887 5699 c4 -13 8 -18 11 -10 2 7 -1 18 -6 23 -8 8 -9 4 -5 -13z"/>
<path d="M3921 5653 c-16 -17 -11 -25 8 -14 7 5 12 13 10 19 -2 6 -10 4 -18
-5z"/>
<path d="M12950 5616 c0 -9 30 -14 35 -6 4 6 -3 10 -14 10 -12 0 -21 -2 -21
-4z"/>
<path d="M3947 5597 c-3 -9 -2 -19 4 -23 15 -9 18 -2 9 20 -6 17 -7 18 -13 3z"/>
<path d="M3955 5550 c3 -5 8 -10 11 -10 2 0 4 5 4 10 0 6 -5 10 -11 10 -5 0
-7 -4 -4 -10z"/>
<path d="M3950 5510 c0 -5 5 -10 11 -10 5 0 7 5 4 10 -3 6 -8 10 -11 10 -2 0
-4 -4 -4 -10z"/>
<path d="M3970 5485 c-8 -9 -8 -15 -2 -15 12 0 26 19 19 26 -2 2 -10 -2 -17
-11z"/>
<path d="M3993 5440 c-11 -17 -8 -30 8 -30 9 0 19 39 10 44 -4 3 -12 -4 -18
-14z"/>
<path d="M11910 5412 c0 -10 7 -19 15 -19 8 0 15 2 15 4 0 3 -7 11 -15 19 -13
14 -15 13 -15 -4z"/>
<path d="M4015 5380 c3 -5 8 -10 11 -10 2 0 4 5 4 10 0 6 -5 10 -11 10 -5 0
-7 -4 -4 -10z"/>
<path d="M4040 5282 c0 -12 4 -22 9 -22 10 0 9 26 -2 36 -4 4 -7 -2 -7 -14z"/>
<path d="M4071 5228 c-6 -17 -1 -37 21 -80 29 -57 48 -73 48 -43 0 8 5 15 10
15 14 0 13 -7 -6 -35 -10 -15 -12 -25 -5 -25 6 0 11 -9 11 -21 0 -12 4 -17 11
-14 6 4 5 -3 -3 -15 -10 -18 -10 -24 0 -27 6 -3 12 -11 12 -19 0 -8 5 -14 10
-14 6 0 10 -8 10 -19 0 -10 7 -24 15 -31 8 -7 15 -21 15 -31 0 -11 5 -19 10
-19 6 0 9 -3 8 -7 -4 -14 13 -53 23 -53 5 0 9 -7 9 -15 0 -24 59 -145 70 -145
6 0 10 -7 10 -15 0 -9 10 -32 23 -53 12 -20 28 -50 36 -67 7 -16 19 -43 27
-58 8 -16 14 -35 14 -43 0 -8 5 -14 11 -14 5 0 19 -19 30 -42 11 -24 36 -65
55 -93 19 -27 34 -55 34 -62 0 -7 4 -13 9 -13 4 0 28 -28 52 -62 24 -35 49
-69 56 -76 7 -7 13 -18 13 -23 0 -11 54 -69 64 -69 6 0 36 -25 92 -77 13 -12
41 -30 62 -39 20 -10 45 -24 54 -32 10 -8 28 -12 43 -10 17 4 25 1 25 -8 0 -8
9 -14 20 -14 11 0 23 -6 26 -13 3 -8 19 -15 37 -15 18 -1 44 -4 60 -7 67 -12
77 -13 71 -4 -3 5 5 9 18 9 19 0 20 -2 8 -11 -12 -9 -11 -9 5 -4 33 12 60 13
68 1 5 -8 10 -7 16 3 6 9 14 10 27 3 21 -10 44 -5 57 12 6 7 7 4 3 -6 -3 -10
-1 -18 5 -18 17 0 69 30 69 40 0 15 -104 12 -119 -2 -10 -11 -12 -10 -9 0 2
10 -16 13 -79 14 -45 0 -87 -3 -94 -8 -7 -4 -10 -3 -6 3 8 13 -20 26 -35 16
-7 -3 -8 -1 -4 5 5 8 -3 12 -23 12 -16 0 -33 5 -36 10 -3 6 -14 10 -23 10 -9
0 -30 7 -46 15 -15 8 -32 15 -37 15 -4 0 -20 11 -35 25 -15 14 -33 25 -39 25
-17 0 -265 249 -265 266 0 8 -4 14 -8 14 -5 0 -19 20 -31 46 -13 25 -34 57
-48 72 -14 15 -33 43 -42 62 -23 51 -63 100 -74 93 -6 -3 -7 -1 -4 4 4 6 -4
30 -18 54 -13 24 -31 60 -40 79 -9 19 -21 42 -26 50 -5 8 -12 23 -15 33 -4 9
-10 17 -15 17 -5 0 -9 6 -9 14 0 7 -7 19 -15 26 -8 7 -15 22 -15 35 0 24 -25
79 -49 107 -11 13 -17 14 -23 5 -4 -7 -8 6 -8 30 0 23 -4 45 -10 48 -5 3 -10
15 -10 27 0 12 -8 22 -21 25 -16 5 -19 11 -14 31 5 21 3 24 -13 20 -18 -5 -19
-1 -15 38 4 44 4 44 -27 44 -27 0 -31 3 -25 18 8 20 8 21 6 46 -1 15 -4 16
-15 7 -9 -8 -16 -8 -20 -2 -4 5 -2 12 4 16 13 8 13 35 0 35 -6 0 -14 -10 -19
-22z m149 -242 c0 -3 -4 -8 -10 -11 -5 -3 -10 -1 -10 4 0 6 5 11 10 11 6 0 10
-2 10 -4z m10 -47 c0 -4 -7 -6 -15 -3 -8 4 -15 10 -15 15 0 4 7 6 15 3 8 -4
15 -10 15 -15z"/>
<path d="M4130 5150 c-9 -6 -10 -10 -3 -10 6 0 15 5 18 10 8 12 4 12 -15 0z"/>
<path d="M12106 4811 c-3 -5 1 -14 9 -21 13 -10 15 -9 15 9 0 21 -14 28 -24
12z"/>
<path d="M11900 4778 c0 -4 6 -8 14 -8 7 0 19 -6 26 -14 6 -8 18 -12 26 -9 13
5 12 9 -4 24 -20 18 -62 22 -62 7z"/>
<path d="M11930 4730 c0 -5 5 -10 11 -10 5 0 7 5 4 10 -3 6 -8 10 -11 10 -2 0
-4 -4 -4 -10z"/>
<path d="M6965 3980 c-3 -5 -15 -10 -26 -10 -10 0 -19 -5 -19 -11 0 -8 -4 -8
-12 -2 -14 10 -87 11 -103 2 -5 -4 -26 -10 -45 -13 -19 -4 -63 -14 -98 -22
-34 -8 -70 -14 -80 -13 -9 1 -43 -6 -75 -15 -35 -11 -72 -15 -91 -12 -21 4
-39 1 -51 -9 -13 -10 -15 -13 -4 -10 10 4 16 0 16 -10 0 -8 -4 -15 -9 -15 -5
0 -6 -5 -3 -11 5 -6 13 -2 23 12 13 18 17 20 26 8 15 -19 76 -19 76 0 0 11 3
11 15 1 8 -7 22 -9 32 -6 9 4 20 1 24 -6 7 -11 13 -10 31 1 21 13 22 13 9 -2
-11 -14 -11 -18 3 -23 9 -3 25 -4 36 -1 11 3 18 2 15 -2 -2 -4 16 -8 40 -9 48
0 65 -7 65 -25 0 -8 -3 -8 -11 0 -11 11 -49 6 -49 -7 0 -11 30 -21 41 -14 5 3
8 2 7 -3 -3 -7 24 -34 139 -139 24 -22 43 -45 43 -51 0 -7 3 -13 8 -13 21 0
202 -262 202 -294 0 -8 3 -16 8 -18 4 -1 14 -19 23 -38 62 -132 81 -170 89
-175 6 -4 10 -13 10 -21 0 -9 6 -22 14 -29 8 -8 28 -49 46 -92 18 -43 41 -97
51 -120 11 -23 19 -47 19 -52 0 -6 9 -27 21 -48 34 -60 130 -384 129 -433 -1
-24 -38 -62 -57 -58 -18 3 -52 63 -59 105 -4 23 -82 150 -126 207 -13 16 -26
36 -29 45 -6 14 -136 141 -170 166 -8 6 -31 22 -51 38 -20 15 -43 27 -51 27
-9 0 -17 4 -19 9 -3 9 -171 91 -187 91 -6 0 -11 5 -11 10 0 6 -8 10 -17 10
-10 0 -27 7 -37 15 -11 8 -31 15 -44 15 -13 0 -56 11 -95 24 -40 13 -102 27
-139 30 -37 3 -79 11 -93 16 -15 6 -39 10 -53 11 -39 1 -137 7 -212 14 -76 7
-114 -7 -118 -45 -2 -19 13 -42 57 -90 33 -36 61 -69 61 -75 0 -5 12 -21 25
-34 14 -13 25 -27 25 -33 0 -11 90 -131 102 -136 4 -2 8 -11 8 -19 0 -9 11
-31 25 -49 14 -18 25 -38 25 -44 0 -6 10 -27 23 -48 13 -20 43 -77 67 -127 25
-49 48 -92 51 -95 3 -3 32 -54 63 -115 32 -60 79 -143 107 -183 27 -40 49 -76
49 -81 0 -4 11 -18 25 -31 14 -13 25 -28 25 -34 0 -31 166 -167 246 -202 149
-64 152 -65 275 -63 l117 3 31 -31 c17 -17 31 -36 31 -41 0 -5 7 -23 15 -38 8
-16 15 -48 15 -71 0 -23 4 -53 10 -67 5 -15 13 -63 16 -108 7 -78 25 -118 53
-118 19 0 61 47 61 68 0 11 14 56 30 99 17 43 35 105 40 138 4 33 13 92 19
130 13 93 19 319 11 425 -15 187 -33 276 -86 440 -8 25 -14 58 -14 73 0 15
-14 54 -30 87 -17 33 -36 84 -44 113 -8 30 -27 82 -44 118 -16 35 -33 80 -37
99 -4 19 -18 51 -31 70 -13 19 -24 40 -24 47 0 7 -22 61 -50 119 -27 58 -50
109 -50 112 0 3 -11 20 -25 38 -14 18 -25 36 -25 40 0 8 -67 120 -92 154 -10
14 -35 49 -54 79 -56 84 -145 178 -267 282 l-55 47 18 38 c23 52 39 63 96 69
60 6 106 26 99 42 -2 7 0 13 5 13 6 0 10 5 10 10 0 6 -4 10 -9 10 -6 0 -13 -4
-16 -10z m-497 -1041 c-2 -6 -8 -10 -13 -10 -5 0 -11 4 -13 10 -2 6 4 11 13
11 9 0 15 -5 13 -11z m-58 -24 c19 -3 40 -7 47 -9 6 -3 14 0 17 7 5 9 7 9 12
0 3 -7 10 -13 15 -13 6 0 8 4 5 9 -4 5 3 7 14 4 16 -4 18 -8 9 -19 -13 -15
-12 -16 73 -17 31 -1 49 -6 53 -15 3 -8 12 -11 21 -8 8 3 22 -1 30 -9 17 -17
49 -21 39 -5 -4 6 -11 8 -16 5 -5 -4 -9 -1 -9 4 0 16 16 13 30 -4 7 -9 16 -12
19 -7 3 5 15 6 26 1 11 -4 14 -8 7 -8 -7 -1 -10 -6 -7 -11 4 -6 15 -8 25 -5
12 4 19 -1 23 -16 4 -16 11 -20 26 -16 14 3 18 1 14 -9 -5 -15 35 -36 51 -26
5 3 6 0 3 -5 -4 -6 2 -18 13 -28 21 -19 31 -26 96 -62 39 -21 214 -195 214
-211 0 -5 14 -27 31 -48 27 -35 45 -68 95 -181 8 -17 14 -38 14 -47 0 -9 8
-33 19 -54 10 -20 22 -59 26 -87 7 -51 28 -85 51 -85 7 0 22 12 33 26 30 38
59 29 80 -26 25 -66 24 -420 -1 -466 -23 -41 -43 -57 -66 -50 -25 8 -71 75
-82 118 -22 84 -39 139 -54 170 -10 18 -21 49 -26 68 -5 19 -13 52 -18 72 -5
20 -19 49 -29 65 -11 15 -24 39 -28 52 -4 14 -22 47 -39 75 -17 28 -40 68 -50
89 -11 20 -23 37 -28 37 -4 0 -8 6 -8 14 0 17 -51 62 -81 71 -12 4 -25 3 -31
-3 -12 -12 10 -49 74 -120 26 -30 48 -60 48 -68 0 -8 4 -14 9 -14 14 0 104
-193 116 -251 4 -19 11 -38 15 -44 19 -26 21 -86 3 -116 -31 -52 -75 -72 -141
-65 -105 12 -218 59 -282 119 -14 12 -41 32 -60 44 -38 24 -90 76 -90 90 0 5
-16 28 -35 50 -19 23 -35 45 -35 50 -1 4 -14 24 -30 43 -17 19 -30 37 -30 41
0 4 -16 31 -35 61 -20 29 -38 64 -42 77 -6 24 -88 185 -107 211 -6 8 -20 33
-30 55 -10 22 -22 48 -28 58 -41 81 -51 98 -59 103 -5 3 -9 12 -9 20 0 8 -15
38 -33 67 -18 29 -36 59 -40 67 -4 8 -23 37 -42 64 -40 55 -44 87 -14 117 20
20 29 21 103 15 44 -3 97 -8 116 -11z"/>
<path d="M6215 3850 c-3 -5 -2 -10 4 -10 5 0 13 5 16 10 3 6 2 10 -4 10 -5 0
-13 -4 -16 -10z"/>
<path d="M5855 3790 c4 -6 11 -8 16 -5 14 9 11 15 -7 15 -8 0 -12 -5 -9 -10z"/>
<path d="M6670 3790 c-9 -6 -10 -10 -3 -10 6 0 15 5 18 10 8 12 4 12 -15 0z"/>
<path d="M5725 3780 c-3 -5 -1 -10 4 -10 6 0 11 5 11 10 0 6 -2 10 -4 10 -3 0
-8 -4 -11 -10z"/>
<path d="M5547 3739 c-10 -11 -15 -24 -11 -27 4 -4 9 -1 11 6 3 6 11 12 19 12
8 0 14 7 14 15 0 21 -12 19 -33 -6z"/>
<path d="M5611 3739 c12 -23 15 -23 22 -5 3 8 -2 16 -14 19 -16 4 -17 2 -8
-14z"/>
<path d="M5898 3753 c7 -3 16 -2 19 1 4 3 -2 6 -13 5 -11 0 -14 -3 -6 -6z"/>
<path d="M5694 3721 c3 -5 17 -8 31 -8 13 0 22 3 19 8 -3 5 -16 9 -30 9 -14 0
-23 -4 -20 -9z"/>
<path d="M12346 2984 c-5 -17 -2 -32 9 -43 8 -10 15 -24 15 -31 0 -9 5 -7 15
6 19 25 19 38 0 30 -11 -4 -15 2 -15 24 0 38 -16 47 -24 14z"/>
</g>
</svg>
